<svg xmlns="http://www.w3.org/2000/svg" viewBox="0 0 1440 1440" preserveAspectRatio="xMidYMid meet" role="img" aria-label="Grup">
<g transform="translate(0,1440) scale(0.1,-0.1)" fill="#355147" stroke="none">
<g visibility="hidden">
<set attributeName="visibility" to="visible" begin="0.0667s" end="0.1333s"/>
<path d="M8703 11032 c-7 -4 -14 -45 -18 -97 -3 -50 -8 -125 -11 -167 -5 -78 -5 -78 19 -78 14 0 145 -25 293 -55 148 -31 411 -84 584 -120 359 -73 577 -120 601 -130 14 -5 19 5 28 62 17 103 30 242 37 410 5 117 4 156 -6 168 -11 13 -100 15 -764 15 -413 0 -756 -4 -763 -8z"/>
</g>
<g visibility="hidden">
<set attributeName="visibility" to="visible" begin="0.1333s" end="0.2000s"/>
<path d="M8703 11032 c-9 -5 -16 -62 -23 -174 -5 -92 -14 -197 -20 -235 -5 -38 -5 -72 -1 -76 5 -5 76 -28 157 -52 139 -40 276 -82 569 -175 66 -21 197 -62 290 -90 94 -28 232 -72 308 -97 76 -25 142 -41 147 -37 9 10 53 242 75 389 16 115 35 362 35 462 0 40 -5 74 -12 81 -9 9 -192 12 -763 12 -412 0 -756 -4 -762 -8z"/>
</g>
<g visibility="hidden">
<set attributeName="visibility" to="visible" begin="0.2000s" end="0.2667s"/>
<path d="M8703 11032 c-9 -5 -16 -63 -23 -177 -6 -93 -19 -232 -31 -309 -22 -151 -81 -397 -123 -510 -13 -39 -23 -73 -20 -77 4 -8 278 -164 884 -504 96 -54 222 -125 279 -157 57 -32 108 -60 114 -61 22 -4 154 265 234 476 108 290 188 670 213 1022 13 187 13 278 -2 293 -9 9 -192 12 -763 12 -412 0 -756 -4 -762 -8z"/>
</g>
<g visibility="hidden">
<set attributeName="visibility" to="visible" begin="0.2667s" end="0.3333s"/>
<path d="M8703 11032 c-9 -5 -16 -63 -23 -177 -20 -327 -79 -621 -181 -892 -51 -138 -51 -138 -35 -183 9 -25 16 -60 16 -78 0 -19 -13 -67 -30 -109 -16 -41 -30 -87 -30 -101 0 -58 31 -92 290 -317 51 -44 123 -107 160 -140 37 -33 109 -96 160 -140 51 -44 118 -102 150 -130 31 -27 80 -69 109 -93 51 -43 51 -43 99 10 97 106 120 135 198 238 228 301 410 674 514 1053 67 244 112 507 130 762 13 187 13 278 -2 293 -9 9 -192 12 -763 12 -412 0 -756 -4 -762 -8z"/>
</g>
<g visibility="hidden">
<set attributeName="visibility" to="visible" begin="0.3333s" end="0.4000s"/>
<path d="M8703 11032 c-9 -5 -16 -63 -23 -177 -20 -330 -81 -631 -181 -887 -43 -110 -53 -148 -58 -223 -5 -65 -14 -103 -31 -135 -34 -66 -112 -180 -214 -313 -116 -152 -132 -175 -145 -221 -19 -69 11 -120 174 -297 33 -36 98 -109 145 -163 159 -184 275 -308 302 -322 40 -21 95 -17 178 11 40 14 95 25 122 25 47 0 51 3 170 107 268 237 506 534 682 853 224 405 368 916 406 1445 13 187 13 278 -2 293 -9 9 -192 12 -763 12 -412 0 -756 -4 -762 -8z"/>
</g>
<g visibility="hidden">
<set attributeName="visibility" to="visible" begin="0.4000s" end="0.4667s"/>
<path d="M8703 11032 c-9 -5 -16 -63 -23 -177 -19 -323 -79 -621 -175 -875 -80 -212 -84 -224 -85 -264 0 -21 -11 -60 -25 -88 -34 -67 -124 -197 -245 -353 -56 -71 -130 -176 -165 -232 -35 -57 -91 -138 -123 -181 -72 -95 -92 -132 -92 -173 0 -17 21 -91 46 -163 45 -125 47 -137 52 -262 3 -97 0 -153 -12 -211 -9 -44 -16 -92 -16 -107 0 -62 46 -106 111 -106 33 0 174 52 260 95 60 31 180 100 337 193 151 91 315 163 383 169 56 5 59 7 194 126 340 298 611 658 795 1059 171 372 277 801 310 1253 13 187 13 278 -2 293 -9 9 -192 12 -763 12 -412 0 -756 -4 -762 -8z"/>
</g>
<g visibility="hidden">
<set attributeName="visibility" to="visible" begin="0.4667s" end="0.5333s"/>
<path d="M8703 11032 c-9 -5 -16 -63 -23 -177 -22 -362 -82 -643 -205 -955 -29 -74 -56 -152 -60 -173 -3 -21 -14 -57 -24 -80 -22 -48 -140 -216 -281 -397 -53 -69 -116 -154 -140 -190 -24 -36 -79 -112 -121 -168 -43 -57 -86 -124 -95 -148 -17 -45 -17 -45 34 -197 28 -84 54 -172 57 -197 6 -44 -15 -197 -50 -362 -16 -74 -16 -79 2 -115 23 -48 79 -77 150 -77 43 0 70 9 175 63 131 68 221 119 440 250 174 103 312 170 371 179 41 6 62 21 187 130 344 302 615 661 800 1064 171 372 277 801 310 1253 13 187 13 278 -2 293 -9 9 -192 12 -763 12 -412 0 -756 -4 -762 -8z"/>
</g>
<g visibility="hidden">
<set attributeName="visibility" to="visible" begin="0.5333s" end="0.6000s"/>
<path d="M8703 11032 c-9 -5 -16 -63 -23 -177 -6 -93 -19 -232 -31 -309 -36 -243 -118 -529 -211 -734 -16 -37 -37 -89 -45 -117 -8 -27 -30 -72 -47 -100 -52 -81 -193 -272 -276 -375 -42 -52 -96 -124 -120 -160 -24 -36 -76 -108 -115 -160 -40 -52 -80 -110 -90 -129 -24 -47 -17 -104 29 -224 73 -194 72 -246 -6 -600 -11 -53 -11 -62 7 -95 28 -53 82 -77 170 -77 70 0 70 0 305 134 129 74 279 160 333 192 137 83 329 179 355 179 39 0 302 235 458 410 281 314 473 631 621 1023 108 290 188 670 213 1022 13 187 13 278 -2 293 -9 9 -192 12 -763 12 -412 0 -756 -4 -762 -8z"/>
</g>
<g visibility="hidden">
<set attributeName="visibility" to="visible" begin="0.6000s" end="0.6667s"/>
<path d="M8703 11032 c-9 -5 -16 -63 -23 -177 -6 -93 -19 -232 -31 -309 -38 -260 -123 -548 -226 -766 -25 -52 -55 -115 -66 -140 -17 -37 -167 -242 -349 -480 -132 -173 -260 -353 -274 -386 -22 -53 -14 -104 41 -252 51 -137 55 -178 35 -307 -23 -150 -56 -195 -141 -195 -36 0 -55 6 -77 25 -25 21 -40 58 -97 232 -66 206 -101 287 -136 319 -16 15 -27 12 -156 -39 -230 -92 -371 -129 -555 -146 -122 -12 -279 0 -393 29 -98 24 -224 85 -289 139 -30 26 -53 38 -61 33 -8 -4 -100 -79 -207 -166 -448 -370 -648 -538 -648 -544 0 -14 168 -142 264 -203 257 -161 552 -264 886 -310 56 -8 185 -13 315 -13 174 1 250 5 365 23 207 31 398 75 571 130 136 43 152 51 173 82 14 20 59 55 112 87 87 52 88 52 171 52 66 0 93 5 126 21 74 38 253 141 607 349 129 77 262 140 293 140 10 0 32 15 50 34 18 18 88 82 156 142 268 234 508 533 685 854 224 405 368 916 406 1445 13 187 13 278 -2 293 -9 9 -192 12 -763 12 -412 0 -756 -4 -762 -8z"/>
</g>
<g visibility="hidden">
<set attributeName="visibility" to="visible" begin="0.6667s" end="0.7333s"/>
<path d="M8703 11032 c-9 -5 -16 -63 -23 -177 -13 -219 -42 -414 -90 -600 -40 -158 -112 -365 -158 -452 -15 -29 -42 -82 -61 -119 -28 -55 -161 -240 -363 -504 -117 -153 -268 -362 -283 -390 -25 -48 -15 -114 37 -250 41 -109 43 -120 43 -220 0 -171 -39 -240 -136 -240 -40 0 -55 5 -84 31 -29 26 -41 49 -71 148 -52 165 -100 281 -134 323 -30 36 -30 36 -123 -4 -122 -53 -333 -122 -432 -142 -200 -40 -403 -39 -570 4 -229 59 -399 198 -466 381 -20 56 -20 56 -162 18 -139 -36 -344 -91 -642 -171 -82 -22 -198 -52 -258 -67 -59 -15 -110 -30 -113 -33 -8 -9 42 -133 92 -227 237 -451 720 -795 1284 -915 194 -41 292 -50 525 -50 174 1 250 5 365 23 202 31 400 75 559 126 75 23 147 45 161 49 14 3 33 19 43 35 34 59 213 143 266 126 24 -7 128 22 176 49 205 118 282 162 425 246 266 156 341 197 408 220 34 13 62 28 62 34 0 7 63 67 140 135 344 301 615 661 800 1063 171 372 277 801 310 1253 13 187 13 278 -2 293 -9 9 -192 12 -763 12 -412 0 -756 -4 -762 -8z"/>
</g>
<g visibility="hidden">
<set attributeName="visibility" to="visible" begin="0.7333s" end="0.8000s"/>
<path d="M8703 11032 c-9 -5 -16 -63 -23 -177 -13 -219 -42 -414 -90 -600 -56 -219 -160 -495 -193 -508 -8 -3 -28 -34 -44 -69 -17 -35 -95 -148 -175 -253 -339 -447 -431 -573 -458 -622 -31 -58 -26 -109 24 -236 24 -62 50 -139 56 -171 20 -99 -6 -216 -58 -256 -17 -14 -40 -20 -73 -20 -42 0 -55 5 -84 33 -29 26 -45 58 -89 184 -62 177 -87 231 -119 261 -23 22 -23 22 -118 -19 -124 -54 -334 -123 -434 -143 -319 -64 -623 -22 -821 114 -70 49 -147 132 -181 197 -48 90 -63 154 -63 268 0 100 0 102 -26 114 -29 13 -75 27 -489 147 -540 158 -597 174 -615 174 -15 0 -23 -13 -35 -53 -33 -115 -46 -198 -52 -337 -4 -109 -1 -173 11 -260 54 -364 264 -718 574 -968 297 -238 653 -386 1072 -443 56 -8 185 -13 315 -13 174 1 250 5 365 23 202 31 400 75 559 126 75 23 149 46 164 49 16 4 42 22 59 41 16 19 59 49 93 65 49 24 82 31 143 35 43 2 90 9 104 14 22 8 221 122 718 408 80 46 171 91 203 100 47 13 57 20 57 38 0 15 42 58 140 144 344 301 615 661 800 1063 171 372 277 801 310 1253 13 187 13 278 -2 293 -9 9 -192 12 -763 12 -412 0 -756 -4 -762 -8z"/>
</g>
<g visibility="hidden">
<set attributeName="visibility" to="visible" begin="0.8000s" end="0.8667s"/>
<path d="M8703 11032 c-9 -5 -16 -63 -23 -177 -6 -93 -19 -232 -31 -309 -35 -241 -117 -525 -209 -732 -22 -49 -34 -64 -50 -64 -13 0 -24 -10 -31 -27 -23 -63 -57 -114 -191 -291 -424 -558 -447 -590 -463 -645 -19 -66 -13 -101 46 -255 31 -80 43 -126 47 -183 4 -63 1 -82 -17 -116 -11 -23 -31 -49 -43 -57 -12 -9 -43 -16 -68 -16 -47 0 -90 21 -116 58 -7 11 -36 80 -64 153 -52 137 -85 202 -117 232 -19 16 -23 15 -114 -24 -124 -54 -334 -123 -434 -143 -200 -40 -403 -39 -570 4 -245 63 -419 215 -479 419 -23 78 -21 223 4 302 23 75 63 147 114 206 31 35 122 103 201 148 17 10 14 23 -42 195 -33 102 -91 282 -128 400 -119 379 -127 405 -136 414 -11 13 -158 -44 -309 -120 -481 -242 -816 -655 -915 -1129 -26 -123 -31 -337 -11 -475 54 -364 264 -718 574 -968 297 -238 653 -386 1072 -443 56 -8 185 -13 315 -13 174 1 250 5 365 23 202 31 400 75 559 126 75 23 149 46 165 49 16 4 38 18 48 31 10 14 52 41 93 61 64 32 87 37 174 43 93 7 104 10 173 50 40 24 145 85 233 136 88 50 222 129 299 175 119 71 220 123 329 168 18 8 27 19 27 35 0 17 35 54 140 146 344 301 615 661 800 1063 171 372 277 801 310 1253 13 187 13 278 -2 293 -9 9 -192 12 -763 12 -412 0 -756 -4 -762 -8z"/>
</g>
<g visibility="hidden">
<set attributeName="visibility" to="visible" begin="0.8667s" end="0.9333s"/>
<path d="M8703 11032 c-9 -5 -16 -63 -23 -177 -6 -93 -19 -232 -31 -309 -35 -241 -117 -525 -210 -733 -26 -59 -32 -65 -54 -61 -22 5 -28 -1 -44 -38 -22 -49 -115 -181 -251 -359 -256 -334 -389 -516 -400 -550 -7 -21 -10 -56 -7 -79 4 -23 27 -98 53 -167 58 -153 67 -234 35 -296 -30 -60 -64 -83 -122 -83 -78 0 -100 27 -159 197 -55 158 -78 209 -108 236 -18 17 -22 17 -44 3 -38 -25 -245 -105 -363 -141 -163 -49 -288 -68 -445 -67 -270 2 -465 71 -614 218 -107 105 -156 225 -156 380 0 192 82 344 245 453 116 77 263 125 430 139 90 7 90 7 97 182 4 96 10 330 14 519 6 344 6 344 -153 338 -333 -12 -632 -89 -924 -238 -473 -241 -806 -654 -904 -1124 -26 -123 -31 -337 -11 -475 54 -364 264 -718 574 -968 297 -238 653 -386 1072 -443 56 -8 185 -13 315 -13 174 1 250 5 365 23 205 31 401 76 561 127 75 24 150 45 167 47 17 2 47 18 68 37 59 51 133 79 223 84 42 3 99 13 127 24 44 17 218 115 674 379 85 50 183 100 218 113 58 21 62 25 62 54 0 29 15 45 140 155 344 301 615 661 800 1063 171 372 277 801 310 1253 13 187 13 278 -2 293 -9 9 -192 12 -763 12 -412 0 -756 -4 -762 -8z"/>
</g>
<g visibility="hidden">
<set attributeName="visibility" to="visible" begin="0.9333s" end="1.0000s"/>
<path d="M8703 11032 c-9 -5 -16 -63 -23 -177 -6 -93 -19 -232 -31 -309 -35 -241 -117 -525 -209 -732 -22 -48 -34 -64 -49 -64 -11 0 -24 8 -30 17 -5 10 -12 16 -14 13 -3 -3 -17 -30 -32 -60 -33 -65 -180 -271 -307 -431 -189 -238 -296 -387 -318 -446 -29 -77 -23 -121 35 -264 56 -137 68 -223 41 -294 -24 -61 -57 -85 -117 -85 -74 0 -101 30 -149 167 -45 129 -89 220 -118 246 -18 17 -22 17 -44 3 -38 -25 -245 -105 -363 -141 -163 -49 -288 -68 -445 -67 -270 2 -465 71 -614 218 -66 65 -114 146 -140 233 -21 72 -21 220 0 292 39 132 137 256 258 328 127 76 312 121 492 121 146 0 282 -32 411 -99 42 -21 42 -21 86 42 24 34 102 143 173 242 72 99 161 223 199 275 38 52 88 120 111 151 43 56 114 169 114 181 0 11 -240 108 -354 143 -149 44 -288 72 -459 91 -193 22 -523 15 -692 -15 -244 -42 -437 -105 -646 -212 -473 -241 -806 -654 -904 -1124 -26 -123 -31 -337 -11 -475 54 -364 264 -718 574 -968 297 -238 653 -386 1072 -443 56 -8 185 -13 315 -13 174 1 250 5 365 23 205 31 401 76 561 127 75 24 150 45 168 47 17 2 44 16 60 31 44 43 124 68 238 75 85 6 110 12 160 37 54 28 447 254 676 389 53 31 127 68 165 80 67 24 67 24 70 68 3 43 6 47 143 166 343 300 614 661 799 1063 171 372 277 801 310 1253 13 187 13 278 -2 293 -9 9 -192 12 -763 12 -412 0 -756 -4 -762 -8z"/>
</g>
<g visibility="hidden">
<set attributeName="visibility" to="visible" begin="1.0000s" end="1.0667s"/>
<path d="M8703 11032 c-9 -5 -16 -63 -23 -177 -6 -93 -19 -232 -31 -309 -35 -241 -117 -525 -209 -732 -20 -44 -35 -64 -47 -64 -11 0 -42 31 -76 74 -81 103 -285 300 -397 383 -251 185 -548 316 -868 382 -56 12 -166 28 -245 37 -193 22 -523 15 -692 -15 -244 -42 -437 -105 -646 -212 -473 -241 -806 -654 -904 -1124 -26 -123 -31 -337 -11 -475 54 -364 264 -718 574 -968 297 -238 653 -386 1072 -443 56 -8 185 -13 315 -13 174 1 250 5 365 23 205 31 401 76 561 127 75 24 150 45 168 47 17 2 41 13 54 25 12 11 49 33 81 48 53 24 66 26 144 21 55 -3 100 -1 127 8 23 6 174 87 336 180 162 92 334 190 383 218 49 28 123 65 165 82 76 32 76 32 79 87 3 55 3 55 143 177 343 300 614 661 799 1063 171 372 277 801 310 1253 13 187 13 278 -2 293 -9 9 -192 12 -763 12 -412 0 -756 -4 -762 -8z m-2004 -1447 c255 -53 493 -224 703 -501 37 -49 44 -54 80 -54 106 0 171 -91 187 -262 7 -75 18 -116 56 -208 56 -139 64 -193 41 -255 -24 -61 -57 -85 -117 -85 -71 0 -98 28 -139 142 -47 131 -84 208 -114 241 -15 15 -29 27 -32 27 -2 0 -15 -7 -27 -14 -37 -25 -245 -105 -362 -141 -163 -49 -288 -68 -445 -67 -270 2 -465 71 -614 218 -107 105 -156 225 -156 379 0 103 16 170 63 260 40 75 133 169 217 217 74 44 191 85 293 103 99 18 281 18 366 0z"/>
</g>
<g visibility="hidden">
<set attributeName="visibility" to="visible" begin="1.0667s" end="1.1333s"/>
<path d="M8703 11032 c-9 -5 -16 -63 -23 -177 -6 -93 -19 -232 -31 -309 -35 -241 -117 -525 -209 -732 -20 -44 -35 -64 -47 -64 -11 0 -42 31 -76 74 -81 103 -285 300 -397 383 -251 185 -548 316 -868 382 -56 12 -166 28 -245 37 -193 22 -523 15 -692 -15 -244 -42 -437 -105 -646 -212 -473 -241 -806 -654 -904 -1124 -26 -123 -31 -337 -11 -475 54 -364 264 -718 574 -968 297 -238 653 -386 1072 -443 56 -8 185 -13 315 -13 174 1 250 5 365 23 205 31 402 76 563 128 76 24 153 45 171 46 19 1 52 15 74 30 47 33 120 57 172 57 20 0 62 -5 93 -11 30 -6 71 -9 89 -5 18 3 104 48 191 99 343 201 422 237 636 291 144 37 130 15 116 176 -7 85 -7 85 134 208 478 417 815 951 981 1555 67 244 112 507 130 762 13 187 13 278 -2 293 -9 9 -192 12 -763 12 -412 0 -756 -4 -762 -8z m-2004 -1447 c260 -54 506 -233 713 -516 40 -55 55 -67 83 -72 47 -8 91 -41 114 -86 11 -20 30 -82 44 -137 14 -54 45 -154 71 -222 58 -155 64 -189 42 -247 -24 -61 -57 -85 -117 -85 -70 0 -101 30 -135 133 -37 113 -90 227 -121 259 -26 27 -26 27 -52 8 -36 -27 -234 -105 -366 -145 -163 -49 -288 -68 -445 -67 -270 2 -465 71 -614 218 -107 105 -156 225 -156 379 0 103 16 170 63 260 40 75 133 169 217 217 74 44 191 85 293 103 99 18 281 18 366 0z"/>
</g>
<g visibility="hidden">
<set attributeName="visibility" to="visible" begin="1.1333s" end="1.2000s"/>
<path d="M8703 11032 c-9 -5 -16 -63 -23 -177 -6 -93 -19 -232 -31 -309 -35 -241 -117 -525 -209 -732 -20 -44 -35 -64 -47 -64 -11 0 -42 31 -76 74 -81 103 -285 300 -397 383 -251 185 -548 316 -868 382 -56 12 -166 28 -245 37 -193 22 -523 15 -692 -15 -244 -42 -437 -105 -646 -212 -473 -241 -806 -654 -904 -1124 -26 -123 -31 -337 -11 -475 106 -716 759 -1286 1613 -1406 335 -47 708 -18 1115 86 165 42 381 112 405 131 16 14 14 46 -18 248 -31 195 -75 368 -103 402 -14 16 -34 55 -45 86 -57 156 -89 228 -116 259 -30 35 -30 35 -112 -5 -171 -84 -357 -146 -528 -177 -127 -22 -343 -20 -461 4 -166 36 -285 96 -388 198 -66 65 -114 146 -140 233 -21 72 -21 220 0 292 39 132 137 256 258 328 127 76 312 121 492 121 231 0 427 -78 632 -252 83 -71 206 -209 264 -297 24 -36 43 -51 82 -66 62 -25 110 -83 131 -163 34 -124 55 -192 95 -302 25 -69 43 -137 45 -170 1 -30 14 -98 29 -150 36 -136 63 -281 87 -467 10 -78 15 -95 34 -107 33 -22 59 -96 52 -148 -3 -23 -19 -61 -36 -85 -33 -46 -35 -61 -46 -246 -6 -99 -6 -99 167 -93 95 3 227 10 293 15 380 31 451 35 556 34 117 -1 117 -1 124 181 8 200 -7 549 -31 746 -8 69 -17 157 -20 195 -6 70 -6 70 135 193 478 417 815 951 981 1555 67 244 112 507 130 762 13 187 13 278 -2 293 -9 9 -192 12 -763 12 -412 0 -756 -4 -762 -8z"/>
</g>
<g visibility="hidden">
<set attributeName="visibility" to="visible" begin="1.2000s" end="1.2667s"/>
<path d="M8703 11032 c-9 -5 -16 -63 -23 -177 -6 -93 -19 -232 -31 -309 -35 -241 -117 -525 -209 -732 -20 -44 -35 -64 -47 -64 -11 0 -42 31 -76 74 -81 103 -285 300 -397 383 -251 185 -548 316 -868 382 -56 12 -166 28 -245 37 -193 22 -523 15 -692 -15 -244 -42 -437 -105 -646 -212 -473 -241 -806 -654 -904 -1124 -26 -123 -31 -337 -11 -475 106 -716 759 -1286 1613 -1406 335 -47 708 -18 1115 86 176 44 386 114 406 134 11 11 11 33 -3 137 -32 249 -100 528 -144 595 -15 23 -44 82 -64 132 -21 49 -52 106 -70 126 -32 37 -32 37 -114 -3 -171 -84 -357 -146 -528 -177 -127 -22 -343 -20 -461 4 -166 36 -285 96 -388 198 -66 65 -114 146 -140 233 -21 72 -21 220 0 292 39 132 137 256 258 328 127 76 312 121 492 121 119 0 212 -17 322 -60 205 -79 416 -260 580 -497 30 -44 68 -86 97 -105 27 -18 57 -45 68 -60 11 -14 41 -88 67 -165 26 -76 57 -164 69 -195 11 -32 21 -74 21 -93 0 -20 15 -89 34 -154 51 -173 83 -336 107 -546 10 -83 19 -118 36 -144 29 -42 30 -108 4 -160 -13 -25 -22 -68 -26 -127 -3 -49 -11 -155 -17 -236 -10 -129 -9 -151 6 -187 20 -51 20 -125 1 -211 -9 -36 -19 -117 -24 -180 -5 -63 -26 -189 -46 -280 -58 -261 -58 -325 4 -370 39 -27 863 -378 898 -382 26 -3 29 1 46 52 29 87 94 343 122 480 134 658 178 1484 109 2051 -8 68 -17 156 -20 194 -6 70 -6 70 135 193 478 417 815 951 981 1555 67 244 112 507 130 762 13 187 13 278 -2 293 -9 9 -192 12 -763 12 -412 0 -756 -4 -762 -8z"/>
</g>
<g visibility="hidden">
<set attributeName="visibility" to="visible" begin="1.2667s" end="1.3333s"/>
<path d="M8703 11032 c-9 -5 -16 -63 -23 -177 -6 -93 -19 -232 -31 -309 -35 -241 -117 -525 -209 -732 -20 -44 -35 -64 -47 -64 -11 0 -42 31 -76 74 -81 103 -285 300 -397 383 -251 185 -548 316 -868 382 -56 12 -166 28 -245 37 -193 22 -523 15 -692 -15 -244 -42 -437 -105 -646 -212 -473 -241 -806 -654 -904 -1124 -26 -123 -31 -337 -11 -475 106 -716 759 -1286 1613 -1406 335 -47 708 -18 1115 86 165 42 381 112 405 131 11 9 13 26 8 68 -15 133 -48 316 -81 451 -35 143 -113 375 -139 416 -8 12 -34 38 -58 58 -43 35 -43 35 -124 -4 -173 -84 -358 -145 -528 -176 -127 -22 -343 -20 -461 4 -166 36 -285 96 -388 198 -66 65 -114 146 -140 233 -21 72 -21 220 0 292 39 132 137 256 258 328 76 45 198 88 303 106 109 19 272 19 362 0 269 -56 526 -248 729 -543 32 -46 68 -84 95 -102 67 -42 120 -149 131 -262 2 -25 25 -102 51 -170 97 -258 152 -487 186 -783 10 -83 19 -118 36 -144 29 -43 31 -113 3 -158 -16 -27 -21 -64 -30 -205 -6 -95 -14 -209 -18 -252 -5 -45 -4 -104 1 -134 8 -46 4 -83 -23 -231 -57 -310 -69 -373 -99 -521 -16 -80 -37 -203 -46 -274 -10 -79 -24 -144 -36 -168 -22 -43 -63 -68 -111 -68 -32 0 -36 -4 -75 -82 -23 -46 -56 -107 -73 -135 -30 -53 -30 -53 12 -84 92 -66 978 -591 991 -586 19 7 155 287 225 462 169 427 283 906 341 1438 57 520 63 1061 15 1448 -8 68 -17 156 -20 194 -6 70 -6 70 135 193 478 417 815 951 981 1555 67 244 112 507 130 762 13 187 13 278 -2 293 -9 9 -192 12 -763 12 -412 0 -756 -4 -762 -8z"/>
</g>
<g visibility="hidden">
<set attributeName="visibility" to="visible" begin="1.3333s" end="1.4000s"/>
<path d="M8703 11032 c-9 -5 -16 -63 -23 -177 -6 -93 -19 -232 -31 -309 -35 -241 -117 -525 -209 -732 -20 -44 -35 -64 -47 -64 -11 0 -42 31 -76 74 -81 103 -285 300 -397 383 -251 185 -548 316 -868 382 -56 12 -166 28 -245 37 -193 22 -523 15 -692 -15 -244 -42 -437 -105 -646 -212 -473 -241 -806 -654 -904 -1124 -26 -123 -31 -337 -11 -475 106 -716 759 -1286 1613 -1406 335 -47 708 -18 1115 86 176 44 386 114 406 134 11 11 11 33 -3 137 -33 256 -91 492 -176 712 -40 103 -58 138 -84 159 -32 28 -32 28 -121 -16 -177 -87 -364 -150 -539 -182 -127 -22 -343 -20 -461 4 -166 36 -285 96 -388 198 -66 65 -114 146 -140 233 -21 72 -21 220 0 292 39 132 137 256 258 328 76 45 198 88 303 106 109 19 272 19 362 0 270 -57 526 -248 730 -545 29 -41 74 -94 102 -119 27 -24 59 -61 70 -83 11 -22 26 -75 34 -118 8 -44 19 -89 25 -101 22 -41 91 -235 125 -350 51 -174 83 -344 105 -544 7 -60 19 -129 27 -152 9 -25 13 -59 10 -85 -20 -161 -46 -496 -52 -659 -2 -53 -14 -146 -29 -214 -15 -66 -33 -160 -41 -210 -8 -49 -27 -151 -44 -225 -17 -74 -40 -189 -51 -255 -12 -66 -31 -143 -44 -171 -13 -28 -40 -64 -60 -80 -26 -21 -51 -59 -86 -131 -108 -226 -245 -427 -403 -590 -91 -94 -91 -94 179 -361 333 -329 599 -582 612 -582 12 0 127 121 218 230 308 369 551 875 704 1462 123 474 185 949 206 1578 6 213 -8 555 -32 751 -8 68 -17 156 -20 194 -6 70 -6 70 135 193 478 417 815 951 981 1555 67 244 112 507 130 762 13 187 13 278 -2 293 -9 9 -192 12 -763 12 -412 0 -756 -4 -762 -8z"/>
</g>
<g visibility="hidden">
<set attributeName="visibility" to="visible" begin="1.4000s" end="1.4667s"/>
<path d="M8703 11032 c-9 -5 -16 -63 -23 -177 -6 -93 -19 -232 -31 -309 -35 -241 -117 -525 -209 -732 -20 -44 -35 -64 -47 -64 -11 0 -42 31 -76 74 -81 103 -285 300 -397 383 -251 185 -548 316 -868 382 -56 12 -166 28 -245 37 -193 22 -523 15 -692 -15 -244 -42 -437 -105 -646 -212 -473 -241 -806 -654 -904 -1124 -26 -123 -31 -337 -11 -475 106 -716 759 -1286 1613 -1406 335 -47 708 -18 1115 86 176 44 386 114 406 134 11 11 11 33 -3 137 -33 256 -91 492 -176 712 -40 103 -58 138 -84 159 -32 28 -32 28 -121 -16 -177 -87 -364 -150 -539 -182 -127 -22 -343 -20 -461 4 -166 36 -285 96 -388 198 -66 65 -114 146 -140 233 -21 72 -21 220 0 292 39 132 137 256 258 328 127 76 312 121 492 121 231 0 427 -78 632 -252 87 -75 202 -205 273 -310 23 -35 68 -88 100 -118 42 -41 62 -70 78 -113 11 -32 21 -71 21 -87 0 -15 9 -50 21 -77 122 -278 203 -591 239 -913 15 -138 16 -148 31 -197 10 -33 10 -52 1 -90 -7 -26 -17 -127 -22 -223 -6 -96 -15 -211 -21 -255 -5 -44 -12 -107 -14 -140 -3 -33 -20 -139 -39 -235 -19 -96 -37 -193 -41 -215 -3 -22 -17 -89 -30 -150 -12 -60 -35 -173 -50 -250 -29 -153 -51 -214 -94 -260 -15 -16 -38 -55 -50 -85 -39 -95 -140 -281 -206 -380 -90 -135 -178 -241 -287 -346 -202 -196 -424 -327 -668 -397 -79 -23 -85 -27 -88 -53 -4 -26 29 -183 89 -424 15 -63 37 -155 48 -205 11 -49 35 -158 54 -240 19 -83 38 -171 42 -198 4 -26 9 -47 11 -47 2 0 58 11 124 25 312 66 619 191 865 353 216 141 371 278 542 477 482 560 793 1381 902 2388 57 520 63 1061 15 1448 -8 68 -17 156 -20 194 -6 70 -6 70 135 193 478 417 815 951 981 1555 67 244 112 507 130 762 13 187 13 278 -2 293 -9 9 -192 12 -763 12 -412 0 -756 -4 -762 -8z"/>
</g>
<g visibility="hidden">
<set attributeName="visibility" to="visible" begin="1.4667s" end="1.5333s"/>
<path d="M8703 11032 c-9 -5 -16 -63 -23 -177 -6 -93 -19 -232 -31 -309 -35 -241 -117 -525 -209 -732 -20 -44 -35 -64 -47 -64 -11 0 -42 31 -76 74 -81 103 -285 300 -397 383 -251 185 -548 316 -868 382 -56 12 -166 28 -245 37 -193 22 -523 15 -692 -15 -244 -42 -437 -105 -646 -212 -473 -241 -806 -654 -904 -1124 -26 -123 -31 -337 -11 -475 106 -716 759 -1286 1613 -1406 335 -47 708 -18 1115 86 176 44 386 114 406 134 11 11 11 33 -3 137 -33 256 -91 492 -176 712 -40 103 -58 138 -84 159 -32 28 -32 28 -121 -16 -177 -87 -364 -150 -539 -182 -127 -22 -343 -20 -461 4 -166 36 -285 96 -388 198 -66 65 -114 146 -140 233 -21 72 -21 220 0 292 39 132 137 256 258 328 127 76 312 121 492 121 119 0 212 -17 322 -60 208 -80 423 -267 591 -512 27 -40 65 -85 84 -100 42 -33 94 -133 106 -203 4 -28 20 -78 34 -112 113 -263 180 -521 229 -878 26 -193 5 -816 -29 -850 -7 -8 -13 -34 -13 -59 0 -44 -35 -242 -86 -491 -14 -66 -36 -181 -51 -255 -32 -171 -68 -295 -98 -341 -13 -20 -36 -65 -51 -100 -164 -391 -447 -745 -755 -945 -156 -102 -344 -178 -527 -216 -82 -16 -142 -21 -259 -21 -152 0 -152 0 -157 -256 -4 -236 -23 -779 -28 -861 -3 -35 -3 -35 232 -34 252 0 398 15 612 60 309 65 618 191 863 352 216 141 371 278 542 477 482 560 793 1381 902 2388 57 520 63 1061 15 1448 -8 68 -17 156 -20 194 -6 70 -6 70 135 193 478 417 815 951 981 1555 67 244 112 507 130 762 13 187 13 278 -2 293 -9 9 -192 12 -763 12 -412 0 -756 -4 -762 -8z"/>
</g>
<g visibility="hidden">
<set attributeName="visibility" to="visible" begin="1.5333s" end="1.6000s"/>
<path d="M8703 11032 c-9 -5 -16 -63 -23 -177 -6 -93 -19 -232 -31 -309 -35 -241 -117 -525 -209 -732 -20 -44 -35 -64 -47 -64 -11 0 -42 31 -76 74 -81 103 -285 300 -397 383 -251 185 -548 316 -868 382 -56 12 -166 28 -245 37 -193 22 -523 15 -692 -15 -244 -42 -437 -105 -646 -212 -473 -241 -806 -654 -904 -1124 -26 -123 -31 -337 -11 -475 106 -716 759 -1286 1613 -1406 335 -47 708 -18 1115 86 165 42 381 112 405 131 16 14 14 45 -18 249 -37 236 -106 481 -199 703 -23 56 -38 79 -53 82 -14 4 -55 -10 -112 -39 -178 -87 -364 -150 -540 -182 -127 -22 -343 -20 -461 4 -166 36 -285 96 -388 198 -66 65 -114 146 -140 233 -21 72 -21 220 0 292 39 132 137 256 258 328 127 76 312 121 492 121 119 0 212 -17 322 -60 210 -81 428 -271 593 -517 29 -43 67 -90 85 -105 37 -32 84 -120 84 -159 0 -14 14 -57 31 -95 122 -267 199 -555 251 -929 26 -192 5 -816 -28 -850 -8 -7 -16 -33 -20 -57 -7 -54 -67 -373 -100 -533 -14 -66 -39 -187 -55 -270 -17 -82 -40 -167 -50 -187 -10 -21 -19 -44 -19 -51 0 -20 -72 -192 -120 -288 -170 -338 -421 -630 -691 -805 -90 -59 -227 -126 -331 -162 -184 -65 -360 -87 -581 -72 -125 8 -267 31 -353 55 -26 8 -18 28 -234 -550 -94 -253 -178 -477 -186 -498 -14 -37 -14 -38 13 -48 42 -16 216 -56 316 -74 207 -35 385 -47 632 -42 251 5 396 21 597 63 309 65 618 191 863 352 216 141 371 278 542 477 482 560 793 1381 902 2388 57 520 63 1061 15 1448 -8 68 -17 156 -20 194 -6 70 -6 70 135 193 478 417 815 951 981 1555 67 244 112 507 130 762 13 187 13 278 -2 293 -9 9 -192 12 -763 12 -412 0 -756 -4 -762 -8z"/>
</g>
<g visibility="hidden">
<set attributeName="visibility" to="visible" begin="1.6000s" end="1.6667s"/>
<path d="M8703 11032 c-9 -5 -16 -63 -23 -177 -6 -93 -19 -232 -31 -309 -35 -241 -117 -525 -209 -732 -20 -44 -35 -64 -47 -64 -11 0 -42 31 -76 74 -81 103 -285 300 -397 383 -251 185 -548 316 -868 382 -56 12 -166 28 -245 37 -193 22 -523 15 -692 -15 -244 -42 -437 -105 -646 -212 -473 -241 -806 -654 -904 -1124 -26 -123 -31 -337 -11 -475 106 -716 759 -1286 1613 -1406 335 -47 708 -18 1115 86 165 42 381 112 405 131 16 14 14 45 -18 249 -38 242 -122 534 -209 728 -21 44 -34 62 -48 62 -10 0 -59 -20 -108 -44 -177 -87 -364 -150 -539 -182 -127 -22 -343 -20 -461 4 -166 36 -285 96 -388 198 -66 65 -114 146 -140 233 -21 72 -21 220 0 292 39 132 137 256 258 328 127 76 312 121 492 121 119 0 212 -17 322 -60 210 -81 427 -269 593 -517 29 -43 66 -91 81 -107 32 -32 68 -96 68 -122 0 -9 19 -57 41 -108 133 -294 207 -563 261 -951 16 -115 15 -488 -1 -670 -15 -178 -17 -185 -41 -185 -17 0 -20 -7 -20 -41 0 -22 -16 -120 -35 -217 -19 -97 -41 -213 -49 -257 -34 -184 -95 -454 -114 -501 -12 -29 -19 -60 -16 -70 5 -21 -54 -170 -116 -295 -170 -338 -421 -630 -691 -805 -90 -59 -227 -126 -331 -162 -184 -65 -360 -87 -581 -72 -314 21 -512 91 -665 234 -67 63 -67 63 -137 40 -38 -13 -89 -23 -113 -23 -24 -1 -73 -5 -110 -11 -63 -9 -129 -16 -372 -40 -55 -5 -145 -14 -200 -20 -244 -24 -309 -32 -375 -41 -38 -5 -71 -11 -72 -13 -6 -6 50 -144 99 -241 75 -150 160 -267 292 -403 176 -181 346 -300 584 -407 272 -123 552 -192 915 -226 163 -15 540 -7 702 16 419 57 792 191 1100 393 216 141 371 278 542 477 482 560 793 1381 902 2388 57 520 63 1061 15 1448 -8 68 -17 156 -20 194 -6 70 -6 70 135 193 478 417 815 951 981 1555 67 244 112 507 130 762 13 187 13 278 -2 293 -9 9 -192 12 -763 12 -412 0 -756 -4 -762 -8z"/>
</g>
<g visibility="hidden">
<set attributeName="visibility" to="visible" begin="1.6667s" end="1.7333s"/>
<path d="M8703 11032 c-9 -5 -16 -63 -23 -177 -6 -93 -19 -232 -31 -309 -35 -241 -117 -525 -209 -732 -20 -44 -35 -64 -47 -64 -11 0 -42 31 -76 74 -81 103 -285 300 -397 383 -251 185 -548 316 -868 382 -56 12 -166 28 -245 37 -193 22 -523 15 -692 -15 -244 -42 -437 -105 -646 -212 -473 -241 -806 -654 -904 -1124 -26 -123 -31 -337 -11 -475 106 -716 759 -1286 1613 -1406 335 -47 708 -18 1115 86 176 44 386 114 406 134 11 11 11 33 -3 137 -20 158 -58 343 -100 489 -39 136 -129 371 -153 400 -17 20 -17 20 -119 -30 -291 -142 -524 -202 -778 -201 -274 1 -469 69 -619 217 -66 65 -114 146 -140 233 -21 72 -21 220 0 292 39 132 137 256 258 328 127 76 312 121 492 121 119 0 212 -17 322 -60 216 -83 436 -278 605 -535 32 -49 67 -99 78 -111 10 -11 30 -47 43 -80 13 -32 41 -95 61 -139 80 -170 164 -426 203 -620 53 -261 66 -387 66 -630 0 -191 -15 -453 -30 -522 -3 -14 -12 -23 -24 -23 -14 0 -21 -9 -25 -37 -4 -21 -24 -128 -46 -238 -21 -110 -45 -236 -53 -280 -30 -164 -94 -453 -106 -474 -6 -12 -9 -35 -5 -50 4 -19 -6 -56 -35 -126 -119 -286 -273 -526 -464 -723 -150 -155 -288 -258 -462 -345 -243 -122 -471 -166 -757 -147 -327 22 -524 94 -677 249 -107 108 -161 226 -183 394 -11 87 -11 87 -52 98 -73 20 -135 48 -605 280 -256 126 -479 232 -497 235 -31 6 -32 5 -48 -47 -9 -30 -25 -106 -37 -169 -17 -95 -21 -156 -22 -355 -1 -214 2 -253 22 -354 46 -228 139 -450 265 -636 78 -113 273 -315 386 -399 181 -133 388 -238 620 -315 206 -68 407 -107 674 -132 163 -15 540 -7 702 16 419 57 792 191 1100 393 216 141 371 278 542 477 482 560 793 1381 902 2388 57 520 63 1061 15 1448 -8 68 -17 156 -20 194 -6 70 -6 70 135 193 478 417 815 951 981 1555 67 244 112 507 130 762 13 187 13 278 -2 293 -9 9 -192 12 -763 12 -412 0 -756 -4 -762 -8z"/>
</g>
<g visibility="hidden">
<set attributeName="visibility" to="visible" begin="1.7333s" end="1.8000s"/>
<path d="M8703 11032 c-9 -5 -16 -63 -23 -177 -6 -93 -19 -232 -31 -309 -35 -241 -117 -525 -209 -732 -20 -44 -35 -64 -47 -64 -11 0 -42 31 -76 74 -81 103 -285 300 -397 383 -251 185 -548 316 -868 382 -56 12 -166 28 -245 37 -193 22 -523 15 -692 -15 -244 -42 -437 -105 -646 -212 -473 -241 -806 -654 -904 -1124 -26 -123 -31 -337 -11 -475 106 -716 759 -1286 1613 -1406 335 -47 708 -18 1115 86 176 44 386 114 406 134 11 11 11 33 -3 137 -20 158 -58 343 -100 489 -39 136 -129 371 -153 400 -17 20 -17 20 -119 -30 -291 -142 -524 -202 -778 -201 -274 1 -469 69 -619 217 -66 65 -114 146 -140 233 -21 72 -21 220 0 292 39 132 137 256 258 328 76 45 198 88 303 106 109 19 272 19 362 0 288 -60 541 -259 770 -604 93 -139 89 -131 152 -271 144 -318 216 -577 271 -975 16 -115 15 -488 -1 -670 -16 -188 -15 -185 -51 -185 -24 0 -30 -4 -30 -21 0 -18 -38 -223 -100 -534 -47 -240 -91 -442 -102 -468 -8 -22 -8 -34 2 -52 12 -22 9 -35 -25 -117 -119 -289 -277 -537 -469 -736 -150 -155 -288 -258 -462 -345 -243 -122 -471 -166 -757 -147 -327 22 -524 94 -677 249 -130 132 -190 293 -190 511 0 163 55 308 159 422 61 66 61 66 -72 196 -72 71 -154 148 -182 170 -27 22 -99 90 -160 152 -60 61 -147 143 -193 182 -46 38 -99 92 -120 119 -20 27 -43 49 -52 49 -22 -1 -170 -133 -245 -220 -89 -103 -156 -205 -220 -335 -129 -262 -184 -546 -172 -895 8 -266 61 -479 174 -705 80 -159 162 -274 297 -413 176 -181 346 -300 584 -407 272 -123 552 -192 915 -226 163 -15 540 -7 702 16 419 57 792 191 1100 393 216 141 371 278 542 477 482 560 793 1381 902 2388 57 520 63 1061 15 1448 -8 68 -17 156 -20 194 -6 70 -6 70 135 193 478 417 815 951 981 1555 67 244 112 507 130 762 13 187 13 278 -2 293 -9 9 -192 12 -763 12 -412 0 -756 -4 -762 -8z"/>
</g>
<g visibility="hidden">
<set attributeName="visibility" to="visible" begin="1.8000s" end="1.8667s"/>
<path d="M8703 11032 c-9 -5 -16 -63 -23 -177 -6 -93 -19 -232 -31 -309 -35 -241 -117 -525 -209 -732 -20 -44 -35 -64 -47 -64 -11 0 -42 31 -76 74 -81 103 -285 300 -397 383 -251 185 -548 316 -868 382 -56 12 -166 28 -245 37 -193 22 -523 15 -692 -15 -244 -42 -437 -105 -646 -212 -473 -241 -806 -654 -904 -1124 -26 -123 -31 -337 -11 -475 106 -716 759 -1286 1613 -1406 335 -47 708 -18 1115 86 176 44 386 114 406 134 11 11 11 33 -3 137 -20 158 -58 343 -100 489 -39 136 -129 371 -153 400 -17 20 -17 20 -119 -30 -291 -142 -524 -202 -778 -201 -274 1 -469 69 -619 217 -66 65 -114 146 -140 233 -21 72 -21 220 0 292 39 132 137 256 258 328 76 45 198 88 303 106 109 19 272 19 362 0 353 -74 669 -369 902 -840 151 -307 232 -589 291 -1010 16 -115 15 -488 -1 -670 -17 -193 -14 -185 -60 -185 -38 0 -38 0 -45 -61 -3 -34 -19 -121 -35 -193 -17 -73 -35 -164 -41 -202 -6 -38 -26 -139 -44 -224 -18 -85 -39 -186 -46 -225 -7 -38 -19 -88 -27 -110 -13 -37 -13 -41 7 -54 11 -7 20 -19 20 -26 0 -18 -74 -193 -120 -286 -170 -338 -421 -630 -691 -805 -90 -59 -227 -126 -331 -162 -184 -65 -360 -87 -581 -72 -327 22 -524 94 -677 249 -130 132 -190 293 -190 511 0 106 20 193 67 289 27 57 55 94 117 156 51 50 109 96 158 123 93 53 258 112 388 140 124 27 342 52 453 52 81 0 87 1 87 21 0 43 -238 948 -261 991 -8 15 -19 17 -87 12 -141 -10 -405 -45 -527 -70 -283 -58 -481 -122 -700 -229 -297 -145 -517 -329 -678 -568 -65 -97 -150 -271 -187 -385 -67 -207 -96 -434 -87 -692 8 -266 61 -479 174 -705 80 -159 162 -274 297 -413 176 -181 346 -300 584 -407 272 -123 552 -192 915 -226 163 -15 540 -7 702 16 419 57 792 191 1100 393 216 141 371 278 542 477 482 560 793 1381 902 2388 57 520 63 1061 15 1448 -8 68 -17 156 -20 194 -6 70 -6 70 135 193 478 417 815 951 981 1555 67 244 112 507 130 762 13 187 13 278 -2 293 -9 9 -192 12 -763 12 -412 0 -756 -4 -762 -8z"/>
</g>
<g visibility="hidden">
<set attributeName="visibility" to="visible" begin="1.8667s" end="1.9333s"/>
<path d="M8703 11032 c-9 -5 -16 -63 -23 -177 -6 -93 -19 -232 -31 -309 -35 -241 -117 -525 -209 -732 -20 -44 -35 -64 -47 -64 -11 0 -42 31 -76 74 -81 103 -285 300 -397 383 -251 185 -548 316 -868 382 -56 12 -166 28 -245 37 -193 22 -523 15 -692 -15 -244 -42 -437 -105 -646 -212 -473 -241 -806 -654 -904 -1124 -26 -123 -31 -337 -11 -475 106 -716 759 -1286 1613 -1406 335 -47 708 -18 1115 86 176 44 386 114 406 134 11 11 11 33 -3 137 -20 158 -58 343 -100 489 -39 136 -129 371 -153 400 -17 20 -17 20 -119 -30 -291 -142 -524 -202 -778 -201 -274 1 -469 69 -619 217 -66 65 -114 146 -140 233 -21 72 -21 220 0 292 39 132 137 256 258 328 76 45 198 88 303 106 109 19 272 19 362 0 353 -74 669 -369 902 -840 151 -307 232 -589 291 -1010 16 -115 15 -488 -1 -670 -17 -198 -12 -185 -71 -185 -45 0 -52 -3 -60 -25 -11 -28 -59 -254 -89 -421 -11 -60 -43 -217 -70 -349 -28 -132 -51 -245 -51 -251 0 -6 14 -14 30 -18 17 -3 33 -13 36 -21 12 -29 -104 -286 -205 -458 -149 -252 -381 -500 -602 -643 -90 -59 -227 -126 -331 -162 -184 -65 -360 -87 -581 -72 -327 22 -524 94 -677 249 -130 132 -190 293 -190 511 0 106 20 193 67 289 27 57 55 94 117 156 96 95 189 151 343 205 222 78 452 110 788 110 121 0 292 -7 380 -15 112 -10 161 -11 166 -4 7 12 13 50 99 609 11 69 29 187 41 263 13 82 18 141 13 146 -5 5 -83 14 -174 20 -653 46 -1205 7 -1677 -119 -173 -46 -305 -95 -468 -175 -297 -145 -517 -329 -678 -568 -65 -97 -150 -271 -187 -385 -67 -207 -96 -434 -87 -692 8 -266 61 -479 174 -705 80 -159 162 -274 297 -413 176 -181 346 -300 584 -407 272 -123 552 -192 915 -226 163 -15 540 -7 702 16 419 57 792 191 1100 393 216 141 371 278 542 477 482 560 793 1381 902 2388 57 520 63 1061 15 1448 -8 68 -17 156 -20 194 -6 70 -6 70 135 193 478 417 815 951 981 1555 67 244 112 507 130 762 13 187 13 278 -2 293 -9 9 -192 12 -763 12 -412 0 -756 -4 -762 -8z"/>
</g>
<g visibility="hidden">
<set attributeName="visibility" to="visible" begin="1.9333s" end="2.0000s"/>
<path d="M8703 11032 c-9 -5 -16 -63 -23 -177 -6 -93 -19 -232 -31 -309 -35 -241 -117 -525 -209 -732 -20 -44 -35 -64 -47 -64 -11 0 -42 31 -76 74 -81 103 -285 300 -397 383 -251 185 -548 316 -868 382 -56 12 -166 28 -245 37 -193 22 -523 15 -692 -15 -244 -42 -437 -105 -646 -212 -473 -241 -806 -654 -904 -1124 -26 -123 -31 -337 -11 -475 106 -716 759 -1286 1613 -1406 335 -47 708 -18 1115 86 176 44 386 114 406 134 11 11 11 33 -3 137 -20 158 -58 343 -100 489 -39 136 -129 371 -153 400 -17 20 -17 20 -119 -30 -291 -142 -524 -202 -778 -201 -274 1 -469 69 -619 217 -66 65 -114 146 -140 233 -21 72 -21 220 0 292 39 132 137 256 258 328 76 45 198 88 303 106 109 19 272 19 362 0 353 -74 669 -369 902 -840 151 -307 232 -589 291 -1010 16 -115 15 -488 -1 -670 -17 -193 -14 -185 -59 -185 -20 0 -71 6 -112 14 -351 67 -983 126 -1352 126 -302 0 -697 -36 -943 -86 -283 -58 -481 -122 -700 -229 -297 -145 -517 -329 -678 -568 -65 -97 -150 -271 -187 -385 -67 -207 -96 -434 -87 -692 8 -266 61 -479 174 -705 80 -159 162 -274 297 -413 176 -181 346 -300 584 -407 272 -123 552 -192 915 -226 163 -15 540 -7 702 16 419 57 792 191 1100 393 216 141 371 278 542 477 482 560 793 1381 902 2388 57 520 63 1061 15 1448 -8 68 -17 156 -20 194 -6 70 -6 70 135 193 478 417 815 951 981 1555 67 244 112 507 130 762 13 187 13 278 -2 293 -9 9 -192 12 -763 12 -412 0 -756 -4 -762 -8z m-1977 -5067 c265 -24 535 -68 774 -127 97 -23 120 -33 120 -52 0 -19 -73 -192 -120 -287 -170 -338 -421 -630 -691 -805 -90 -59 -227 -126 -331 -162 -184 -65 -360 -87 -581 -72 -327 22 -524 94 -677 249 -130 132 -190 293 -190 511 0 106 20 193 67 289 27 57 55 94 117 156 96 95 189 151 344 205 127 45 263 75 422 94 157 19 547 19 746 1z"/>
</g>
<g visibility="hidden">
<set attributeName="visibility" to="visible" begin="2.0000s" end="2.0667s"/>
<path d="M8703 11032 c-9 -5 -16 -63 -23 -177 -6 -93 -19 -232 -31 -309 -35 -241 -117 -525 -209 -732 -20 -44 -35 -64 -47 -64 -11 0 -42 31 -76 74 -81 103 -285 300 -397 383 -251 185 -548 316 -868 382 -56 12 -166 28 -245 37 -193 22 -523 15 -692 -15 -244 -42 -437 -105 -646 -212 -473 -241 -806 -654 -904 -1124 -26 -123 -31 -337 -11 -475 106 -716 759 -1286 1613 -1406 335 -47 708 -18 1115 86 176 44 386 114 406 134 11 11 11 33 -3 137 -20 158 -58 343 -100 489 -39 136 -129 371 -153 400 -17 20 -17 20 -119 -30 -291 -142 -524 -202 -778 -201 -274 1 -469 69 -619 217 -66 65 -114 146 -140 233 -21 72 -21 220 0 292 39 132 137 256 258 328 76 45 198 88 303 106 109 19 272 19 362 0 353 -74 669 -369 902 -840 151 -307 232 -589 291 -1010 16 -115 15 -488 -1 -670 -17 -193 -14 -185 -59 -185 -20 0 -71 6 -112 14 -351 67 -983 126 -1352 126 -302 0 -697 -36 -943 -86 -283 -58 -481 -122 -700 -229 -297 -145 -517 -329 -678 -568 -65 -97 -150 -271 -187 -385 -67 -207 -96 -434 -87 -692 8 -266 61 -479 174 -705 80 -159 162 -274 297 -413 176 -181 346 -300 584 -407 272 -123 552 -192 915 -226 163 -15 540 -7 702 16 419 57 792 191 1100 393 216 141 371 278 542 477 482 560 793 1381 902 2388 57 520 63 1061 15 1448 -8 68 -17 156 -20 194 -6 70 -6 70 135 193 478 417 815 951 981 1555 67 244 112 507 130 762 13 187 13 278 -2 293 -9 9 -192 12 -763 12 -412 0 -756 -4 -762 -8z m-1977 -5067 c265 -24 535 -68 774 -127 97 -23 120 -33 120 -52 0 -19 -73 -192 -120 -287 -170 -338 -421 -630 -691 -805 -90 -59 -227 -126 -331 -162 -184 -65 -360 -87 -581 -72 -327 22 -524 94 -677 249 -130 132 -190 293 -190 511 0 106 20 193 67 289 27 57 55 94 117 156 96 95 189 151 344 205 127 45 263 75 422 94 157 19 547 19 746 1z"/>
<path d="M9217 6472 c-4 -4 -11 -49 -17 -98 -14 -112 -66 -418 -86 -503 -8 -35 -13 -66 -11 -68 13 -13 91 133 188 352 63 144 99 244 93 259 -2 6 -35 22 -72 35 -37 13 -72 26 -78 28 -7 2 -14 0 -17 -5z"/>
</g>
<g visibility="hidden">
<set attributeName="visibility" to="visible" begin="2.0667s" end="2.1333s"/>
<path d="M8703 11032 c-9 -5 -16 -63 -23 -177 -6 -93 -19 -232 -31 -309 -35 -241 -117 -525 -209 -732 -20 -44 -35 -64 -47 -64 -11 0 -42 31 -76 74 -81 103 -285 300 -397 383 -251 185 -548 316 -868 382 -56 12 -166 28 -245 37 -193 22 -523 15 -692 -15 -244 -42 -437 -105 -646 -212 -473 -241 -806 -654 -904 -1124 -26 -123 -31 -337 -11 -475 106 -716 759 -1286 1613 -1406 335 -47 708 -18 1115 86 176 44 386 114 406 134 11 11 11 33 -3 137 -20 158 -58 343 -100 489 -39 136 -129 371 -153 400 -17 20 -17 20 -119 -30 -291 -142 -524 -202 -778 -201 -274 1 -469 69 -619 217 -66 65 -114 146 -140 233 -21 72 -21 220 0 292 39 132 137 256 258 328 76 45 198 88 303 106 109 19 272 19 362 0 353 -74 669 -369 902 -840 151 -307 232 -589 291 -1010 16 -115 15 -488 -1 -670 -17 -193 -14 -185 -59 -185 -20 0 -71 6 -112 14 -351 67 -983 126 -1352 126 -302 0 -697 -36 -943 -86 -283 -58 -481 -122 -700 -229 -297 -145 -517 -329 -678 -568 -65 -97 -150 -271 -187 -385 -67 -207 -96 -434 -87 -692 8 -266 61 -479 174 -705 80 -159 162 -274 297 -413 176 -181 346 -300 584 -407 272 -123 552 -192 915 -226 163 -15 540 -7 702 16 419 57 792 191 1100 393 216 141 371 278 542 477 482 560 793 1381 902 2388 57 520 63 1061 15 1448 -8 68 -17 156 -20 194 -6 70 -6 70 135 193 478 417 815 951 981 1555 67 244 112 507 130 762 13 187 13 278 -2 293 -9 9 -192 12 -763 12 -412 0 -756 -4 -762 -8z m-1977 -5067 c265 -24 535 -68 774 -127 97 -23 120 -33 120 -52 0 -19 -73 -192 -120 -287 -170 -338 -421 -630 -691 -805 -90 -59 -227 -126 -331 -162 -184 -65 -360 -87 -581 -72 -327 22 -524 94 -677 249 -130 132 -190 293 -190 511 0 106 20 193 67 289 27 57 55 94 117 156 96 95 189 151 344 205 127 45 263 75 422 94 157 19 547 19 746 1z"/>
<path d="M9216 6472 c-3 -5 -10 -49 -16 -98 -23 -189 -99 -588 -136 -720 -5 -18 2 -25 41 -44 53 -26 79 -61 101 -140 72 -262 94 -300 168 -300 52 0 88 22 289 179 84 64 184 138 223 163 68 43 74 51 138 163 93 161 177 336 174 359 -4 23 -102 76 -365 197 -165 76 -522 223 -590 243 -12 4 -24 3 -27 -2z"/>
</g>
<g visibility="hidden">
<set attributeName="visibility" to="visible" begin="2.1333s" end="2.2000s"/>
<path d="M8703 11032 c-9 -5 -16 -63 -23 -177 -6 -93 -19 -232 -31 -309 -35 -241 -117 -525 -209 -732 -20 -44 -35 -64 -47 -64 -11 0 -42 31 -76 74 -81 103 -285 300 -397 383 -251 185 -548 316 -868 382 -56 12 -166 28 -245 37 -193 22 -523 15 -692 -15 -244 -42 -437 -105 -646 -212 -473 -241 -806 -654 -904 -1124 -26 -123 -31 -337 -11 -475 106 -716 759 -1286 1613 -1406 335 -47 708 -18 1115 86 176 44 386 114 406 134 11 11 11 33 -3 137 -20 158 -58 343 -100 489 -39 136 -129 371 -153 400 -17 20 -17 20 -119 -30 -291 -142 -524 -202 -778 -201 -274 1 -469 69 -619 217 -66 65 -114 146 -140 233 -21 72 -21 220 0 292 39 132 137 256 258 328 76 45 198 88 303 106 109 19 272 19 362 0 353 -74 669 -369 902 -840 151 -307 232 -589 291 -1010 16 -115 15 -488 -1 -670 -17 -193 -14 -185 -59 -185 -20 0 -71 6 -112 14 -351 67 -983 126 -1352 126 -302 0 -697 -36 -943 -86 -283 -58 -481 -122 -700 -229 -297 -145 -517 -329 -678 -568 -65 -97 -150 -271 -187 -385 -67 -207 -96 -434 -87 -692 8 -266 61 -479 174 -705 80 -159 162 -274 297 -413 176 -181 346 -300 584 -407 272 -123 552 -192 915 -226 163 -15 540 -7 702 16 419 57 792 191 1100 393 216 141 371 278 542 477 482 560 793 1381 902 2388 57 520 63 1061 15 1448 -8 68 -17 156 -20 194 -6 70 -6 70 135 193 478 417 815 951 981 1555 67 244 112 507 130 762 13 187 13 278 -2 293 -9 9 -192 12 -763 12 -412 0 -756 -4 -762 -8z m-1977 -5067 c265 -24 535 -68 774 -127 97 -23 120 -33 120 -52 0 -19 -73 -192 -120 -287 -170 -338 -421 -630 -691 -805 -90 -59 -227 -126 -331 -162 -184 -65 -360 -87 -581 -72 -327 22 -524 94 -677 249 -130 132 -190 293 -190 511 0 106 20 193 67 289 27 57 55 94 117 156 96 95 189 151 344 205 127 45 263 75 422 94 157 19 547 19 746 1z"/>
<path d="M9216 6472 c-3 -5 -10 -49 -16 -98 -25 -203 -94 -566 -143 -752 -14 -52 -14 -52 21 -74 46 -28 70 -83 126 -288 36 -134 50 -169 71 -187 31 -27 82 -30 128 -8 18 8 104 71 192 140 88 69 175 132 193 141 78 37 148 24 195 -37 14 -19 43 -86 66 -149 89 -256 113 -316 139 -342 20 -22 35 -28 69 -28 44 0 44 0 307 268 145 147 276 283 292 302 15 19 62 70 103 114 75 78 75 78 51 98 -41 33 -348 221 -540 330 -361 205 -669 354 -1019 492 -217 86 -228 90 -235 78z"/>
</g>
<g visibility="hidden">
<set attributeName="visibility" to="visible" begin="2.2000s" end="2.2667s"/>
<path d="M8703 11032 c-9 -5 -16 -63 -23 -177 -6 -93 -19 -232 -31 -309 -35 -241 -117 -525 -209 -732 -20 -44 -35 -64 -47 -64 -11 0 -42 31 -76 74 -81 103 -285 300 -397 383 -251 185 -548 316 -868 382 -56 12 -166 28 -245 37 -193 22 -523 15 -692 -15 -244 -42 -437 -105 -646 -212 -473 -241 -806 -654 -904 -1124 -26 -123 -31 -337 -11 -475 106 -716 759 -1286 1613 -1406 335 -47 708 -18 1115 86 176 44 386 114 406 134 11 11 11 33 -3 137 -20 158 -58 343 -100 489 -39 136 -129 371 -153 400 -17 20 -17 20 -119 -30 -291 -142 -524 -202 -778 -201 -274 1 -469 69 -619 217 -66 65 -114 146 -140 233 -21 72 -21 220 0 292 39 132 137 256 258 328 76 45 198 88 303 106 109 19 272 19 362 0 353 -74 669 -369 902 -840 151 -307 232 -589 291 -1010 16 -115 15 -488 -1 -670 -17 -193 -14 -185 -59 -185 -20 0 -71 6 -112 14 -351 67 -983 126 -1352 126 -302 0 -697 -36 -943 -86 -283 -58 -481 -122 -700 -229 -297 -145 -517 -329 -678 -568 -65 -97 -150 -271 -187 -385 -67 -207 -96 -434 -87 -692 8 -266 61 -479 174 -705 80 -159 162 -274 297 -413 176 -181 346 -300 584 -407 272 -123 552 -192 915 -226 163 -15 540 -7 702 16 419 57 792 191 1100 393 216 141 371 278 542 477 482 560 793 1381 902 2388 57 520 63 1061 15 1448 -8 68 -17 156 -20 194 -6 70 -6 70 135 193 478 417 815 951 981 1555 67 244 112 507 130 762 13 187 13 278 -2 293 -9 9 -192 12 -763 12 -412 0 -756 -4 -762 -8z m-1977 -5067 c265 -24 535 -68 774 -127 97 -23 120 -33 120 -52 0 -19 -73 -192 -120 -287 -170 -338 -421 -630 -691 -805 -90 -59 -227 -126 -331 -162 -184 -65 -360 -87 -581 -72 -327 22 -524 94 -677 249 -130 132 -190 293 -190 511 0 106 20 193 67 289 27 57 55 94 117 156 96 95 189 151 344 205 127 45 263 75 422 94 157 19 547 19 746 1z"/>
<path d="M9216 6472 c-3 -5 -10 -49 -16 -98 -27 -216 -96 -575 -149 -774 -11 -41 -21 -80 -21 -86 0 -6 11 -16 24 -23 34 -19 62 -74 90 -183 18 -69 23 -111 20 -149 -6 -54 -6 -54 41 -83 104 -65 422 -287 605 -424 421 -316 981 -781 1493 -1240 87 -79 164 -141 171 -139 8 3 11 259 11 988 0 984 0 984 -80 1042 -44 32 -165 115 -270 186 -578 390 -1129 686 -1684 905 -217 86 -228 90 -235 78z"/>
</g>
<g visibility="hidden">
<set attributeName="visibility" to="visible" begin="2.2667s" end="2.3333s"/>
<path d="M8703 11032 c-9 -5 -16 -63 -23 -177 -6 -93 -19 -232 -31 -309 -35 -241 -117 -525 -209 -732 -20 -44 -35 -64 -47 -64 -11 0 -42 31 -76 74 -81 103 -285 300 -397 383 -251 185 -548 316 -868 382 -56 12 -166 28 -245 37 -193 22 -523 15 -692 -15 -244 -42 -437 -105 -646 -212 -473 -241 -806 -654 -904 -1124 -26 -123 -31 -337 -11 -475 106 -716 759 -1286 1613 -1406 335 -47 708 -18 1115 86 176 44 386 114 406 134 11 11 11 33 -3 137 -20 158 -58 343 -100 489 -39 136 -129 371 -153 400 -17 20 -17 20 -119 -30 -291 -142 -524 -202 -778 -201 -274 1 -469 69 -619 217 -66 65 -114 146 -140 233 -21 72 -21 220 0 292 39 132 137 256 258 328 76 45 198 88 303 106 109 19 272 19 362 0 353 -74 669 -369 902 -840 151 -307 232 -589 291 -1010 16 -115 15 -488 -1 -670 -17 -193 -14 -185 -59 -185 -20 0 -71 6 -112 14 -351 67 -983 126 -1352 126 -302 0 -697 -36 -943 -86 -283 -58 -481 -122 -700 -229 -297 -145 -517 -329 -678 -568 -65 -97 -150 -271 -187 -385 -67 -207 -96 -434 -87 -692 8 -266 61 -479 174 -705 80 -159 162 -274 297 -413 176 -181 346 -300 584 -407 272 -123 552 -192 915 -226 163 -15 540 -7 702 16 419 57 792 191 1100 393 216 141 371 278 542 477 482 560 793 1381 902 2388 57 520 63 1061 15 1448 -8 68 -17 156 -20 194 -6 70 -6 70 135 193 478 417 815 951 981 1555 67 244 112 507 130 762 13 187 13 278 -2 293 -9 9 -192 12 -763 12 -412 0 -756 -4 -762 -8z m-1977 -5067 c265 -24 535 -68 774 -127 97 -23 120 -33 120 -52 0 -19 -73 -192 -120 -287 -170 -338 -421 -630 -691 -805 -90 -59 -227 -126 -331 -162 -184 -65 -360 -87 -581 -72 -327 22 -524 94 -677 249 -130 132 -190 293 -190 511 0 106 20 193 67 289 27 57 55 94 117 156 96 95 189 151 344 205 127 45 263 75 422 94 157 19 547 19 746 1z"/>
<path d="M9216 6472 c-3 -5 -10 -49 -16 -98 -38 -309 -126 -722 -216 -1013 -34 -110 -35 -114 -17 -131 10 -9 77 -54 150 -99 563 -350 1353 -971 2186 -1719 87 -79 164 -141 171 -139 8 3 11 259 11 988 0 984 0 984 -80 1042 -44 32 -165 115 -270 186 -578 390 -1129 686 -1684 905 -217 86 -228 90 -235 78z"/>
</g>
<g visibility="hidden">
<set attributeName="visibility" to="visible" begin="2.3333s" end="2.4000s"/>
<path d="M8703 11032 c-9 -5 -16 -63 -23 -177 -6 -93 -19 -232 -31 -309 -35 -241 -117 -525 -209 -732 -20 -44 -35 -64 -47 -64 -11 0 -42 31 -76 74 -81 103 -285 300 -397 383 -251 185 -548 316 -868 382 -56 12 -166 28 -245 37 -193 22 -523 15 -692 -15 -244 -42 -437 -105 -646 -212 -473 -241 -806 -654 -904 -1124 -26 -123 -31 -337 -11 -475 106 -716 759 -1286 1613 -1406 335 -47 708 -18 1115 86 176 44 386 114 406 134 11 11 11 33 -3 137 -20 158 -58 343 -100 489 -39 136 -129 371 -153 400 -17 20 -17 20 -119 -30 -291 -142 -524 -202 -778 -201 -274 1 -469 69 -619 217 -66 65 -114 146 -140 233 -21 72 -21 220 0 292 39 132 137 256 258 328 76 45 198 88 303 106 109 19 272 19 362 0 353 -74 669 -369 902 -840 151 -307 232 -589 291 -1010 16 -115 15 -488 -1 -670 -17 -193 -14 -185 -59 -185 -20 0 -71 6 -112 14 -351 67 -983 126 -1352 126 -302 0 -697 -36 -943 -86 -283 -58 -481 -122 -700 -229 -297 -145 -517 -329 -678 -568 -65 -97 -150 -271 -187 -385 -67 -207 -96 -434 -87 -692 8 -266 61 -479 174 -705 80 -159 162 -274 297 -413 176 -181 346 -300 584 -407 272 -123 552 -192 915 -226 163 -15 540 -7 702 16 419 57 792 191 1100 393 216 141 371 278 542 477 482 560 793 1381 902 2388 57 520 63 1061 15 1448 -8 68 -17 156 -20 194 -6 70 -6 70 135 193 478 417 815 951 981 1555 67 244 112 507 130 762 13 187 13 278 -2 293 -9 9 -192 12 -763 12 -412 0 -756 -4 -762 -8z m-1977 -5067 c265 -24 535 -68 774 -127 97 -23 120 -33 120 -52 0 -19 -73 -192 -120 -287 -170 -338 -421 -630 -691 -805 -90 -59 -227 -126 -331 -162 -184 -65 -360 -87 -581 -72 -327 22 -524 94 -677 249 -130 132 -190 293 -190 511 0 106 20 193 67 289 27 57 55 94 117 156 96 95 189 151 344 205 127 45 263 75 422 94 157 19 547 19 746 1z"/>
<path d="M9216 6472 c-3 -5 -10 -49 -16 -98 -38 -309 -126 -722 -216 -1013 -34 -110 -35 -114 -17 -131 10 -9 77 -54 150 -99 563 -350 1353 -971 2186 -1719 87 -79 164 -141 171 -139 8 3 11 259 11 988 0 984 0 984 -80 1042 -44 32 -165 115 -270 186 -578 390 -1129 686 -1684 905 -217 86 -228 90 -235 78z"/>
</g>
<g visibility="hidden">
<set attributeName="visibility" to="visible" begin="2.4667s" end="2.5333s"/>
<path d="M7350 10448 c-1 -143 -47 -464 -86 -598 -46 -155 -124 -368 -149 -406 -21 -33 -51 -31 -69 5 -21 41 -207 237 -296 313 -96 82 -154 122 -265 185 -161 90 -244 124 -450 186 -110 33 -307 63 -480 72 -186 11 -510 -24 -670 -71 -68 -20 -263 -94 -300 -114 -16 -9 -61 -34 -100 -55 -142 -76 -255 -165 -384 -301 -52 -54 -105 -117 -119 -139 -14 -22 -40 -62 -58 -90 -18 -27 -57 -107 -88 -177 -78 -179 -99 -296 -94 -512 5 -160 11 -202 51 -326 20 -65 108 -255 148 -319 75 -123 280 -327 428 -425 157 -105 378 -203 551 -245 179 -43 256 -53 457 -58 205 -5 327 3 473 32 41 9 111 23 155 31 110 22 269 68 393 112 74 27 74 27 68 67 -3 22 -10 76 -16 120 -20 146 -62 328 -110 475 -44 136 -95 260 -105 260 -3 0 -31 -13 -62 -30 -217 -112 -502 -190 -698 -190 -83 0 -187 15 -275 38 -54 15 -143 52 -161 68 -8 8 -21 14 -27 14 -23 0 -159 145 -184 195 -38 74 -51 150 -46 251 4 65 12 106 30 151 31 73 34 77 118 162 75 76 150 117 288 156 78 21 111 25 233 25 147 0 157 -2 299 -53 118 -42 249 -134 355 -250 75 -82 167 -201 190 -247 10 -19 21 -37 24 -40 6 -5 26 -40 81 -143 38 -72 131 -307 158 -402 25 -85 57 -218 72 -300 34 -182 39 -264 35 -520 -4 -281 -14 -418 -30 -434 -8 -8 -37 -6 -95 4 -165 30 -351 55 -670 92 -209 24 -848 24 -1045 0 -166 -21 -339 -50 -450 -78 -94 -23 -306 -88 -320 -99 -5 -4 -26 -12 -45 -19 -55 -18 -90 -35 -90 -43 0 -5 -7 -8 -15 -8 -15 0 -71 -27 -140 -68 -227 -133 -432 -348 -542 -567 -101 -200 -147 -402 -159 -690 -5 -114 -2 -175 10 -255 18 -117 23 -138 60 -261 32 -109 156 -352 212 -419 149 -174 235 -261 307 -309 14 -9 56 -37 93 -62 143 -95 407 -208 584 -250 47 -11 101 -24 120 -29 19 -5 91 -17 160 -27 96 -13 192 -18 410 -18 173 0 322 5 380 13 112 15 301 59 455 108 216 67 471 209 675 374 89 73 234 216 308 305 150 180 332 485 425 715 19 47 46 112 60 145 31 74 109 321 137 435 12 47 27 108 35 135 14 52 67 346 85 475 22 156 50 509 56 698 7 203 -10 651 -27 731 -5 24 -12 85 -15 135 -5 91 -5 91 91 171 149 124 364 354 453 484 164 240 306 519 387 764 69 208 92 306 125 535 11 72 22 185 25 250 3 64 8 150 10 190 3 72 3 72 -666 72 -669 0 -669 0 -669 -102z m-1555 -4326 c197 -27 301 -45 465 -83 74 -17 141 -33 148 -35 6 -2 12 -12 12 -23 0 -64 -140 -349 -251 -511 -86 -126 -217 -276 -288 -329 -26 -19 -49 -40 -53 -47 -13 -21 -157 -113 -246 -158 -99 -49 -250 -99 -367 -121 -145 -27 -400 -15 -568 26 -146 37 -259 100 -348 196 -107 117 -149 238 -149 432 0 67 6 138 14 168 28 105 112 225 209 296 127 95 317 163 547 198 202 30 615 26 875 -9z"/>
<path d="M7801 6478 c-7 -51 -16 -113 -21 -138 -5 -25 -14 -81 -20 -125 -7 -44 -18 -105 -26 -135 -7 -30 -25 -109 -40 -175 -14 -66 -39 -163 -55 -215 -15 -52 -34 -117 -41 -144 -12 -44 -11 -50 5 -60 140 -87 297 -192 493 -331 69 -49 136 -97 148 -105 21 -15 199 -150 311 -236 33 -25 83 -65 110 -88 28 -24 71 -58 96 -77 98 -73 466 -389 858 -736 113 -100 151 -128 155 -116 4 8 6 391 6 851 -1 835 -1 835 -31 863 -16 15 -62 49 -101 76 -39 26 -83 57 -98 68 -60 44 -368 245 -375 245 -2 0 -30 17 -62 38 -58 38 -183 110 -291 168 -31 16 -85 47 -120 67 -35 20 -65 37 -67 37 -2 0 -100 45 -217 100 -275 130 -274 130 -398 180 -58 23 -126 51 -152 61 -26 10 -49 19 -51 19 -2 0 -9 -42 -16 -92z"/>
</g>
<g visibility="hidden">
<set attributeName="visibility" to="visible" begin="2.5333s" end="2.6000s"/>
<path d="M6380 10483 c0 -178 -34 -420 -87 -626 -44 -175 -144 -427 -168 -427 -6 0 -27 21 -45 47 -18 25 -77 91 -129 146 -170 177 -322 288 -536 392 -200 96 -380 150 -607 179 -185 24 -332 29 -488 17 -347 -29 -645 -128 -901 -300 -239 -160 -402 -338 -516 -566 -81 -161 -119 -295 -134 -474 -27 -330 89 -660 331 -939 194 -225 512 -418 829 -503 171 -46 281 -61 492 -66 230 -6 360 6 604 57 219 45 481 129 492 157 10 26 -36 310 -77 467 -41 163 -137 425 -157 433 -7 3 -61 -18 -120 -47 -206 -100 -473 -170 -651 -170 -96 0 -234 24 -318 54 -146 53 -261 151 -321 273 -31 63 -36 84 -41 167 -8 156 31 261 136 363 70 69 184 132 287 158 87 23 259 35 341 25 188 -25 358 -116 522 -282 156 -158 291 -374 391 -625 90 -227 145 -448 177 -708 13 -113 15 -186 10 -375 -6 -237 -17 -366 -33 -380 -4 -4 -42 -2 -83 6 -159 29 -518 76 -735 96 -172 16 -786 16 -930 0 -453 -52 -747 -130 -1025 -273 -213 -110 -393 -259 -519 -428 -127 -171 -222 -408 -257 -642 -24 -158 -24 -430 0 -564 35 -198 116 -398 228 -567 82 -124 280 -321 408 -407 171 -114 419 -223 625 -275 246 -62 431 -80 750 -73 263 5 379 18 560 63 108 26 285 81 350 109 159 68 335 169 472 272 119 89 272 236 380 363 161 191 348 511 457 785 138 345 240 755 290 1170 45 369 51 466 50 840 -1 274 -5 392 -18 495 -9 74 -20 165 -23 201 -5 65 -5 65 48 109 86 70 294 277 373 370 203 240 371 532 484 840 111 302 178 669 185 1010 2 125 2 125 -675 128 -678 2 -678 2 -678 -75z m-1710 -4354 c287 -26 766 -116 777 -146 12 -30 -116 -311 -204 -448 -110 -171 -230 -307 -369 -418 -176 -141 -322 -217 -529 -273 -93 -26 -114 -28 -300 -28 -157 0 -218 4 -285 18 -256 55 -415 164 -499 340 -22 44 -45 105 -51 135 -7 30 -13 105 -12 165 0 167 38 267 144 382 128 139 375 237 688 273 109 12 506 13 640 0z"/>
<path d="M6846 6569 c-3 -8 -14 -79 -26 -159 -42 -289 -97 -540 -171 -783 -46 -148 -49 -132 41 -185 261 -152 821 -562 1202 -881 13 -10 95 -79 183 -152 88 -73 231 -196 319 -273 87 -78 217 -193 289 -258 73 -64 135 -114 139 -112 10 7 10 1715 0 1730 -16 24 -335 244 -552 381 -102 64 -348 210 -443 262 -96 53 -427 217 -538 266 -110 49 -337 142 -379 155 -14 4 -33 11 -42 15 -11 4 -20 2 -22 -6z"/>
</g>
<g visibility="hidden">
<set attributeName="visibility" to="visible" begin="2.6000s" end="2.6667s"/>
<path d="M5717 10553 c-4 -3 -7 -46 -7 -94 0 -227 -52 -528 -132 -764 -47 -139 -102 -259 -118 -262 -8 -1 -35 24 -60 58 -25 34 -83 100 -130 148 -159 163 -324 281 -532 381 -248 119 -503 179 -833 196 -218 11 -480 -22 -688 -87 -117 -36 -277 -103 -365 -153 -251 -142 -472 -360 -595 -586 -104 -192 -157 -392 -157 -600 0 -208 36 -362 130 -555 113 -233 292 -427 540 -588 99 -63 178 -105 287 -148 234 -93 416 -130 686 -136 218 -6 358 6 572 48 166 33 233 51 413 111 122 41 122 41 122 80 0 95 -58 397 -105 548 -44 140 -118 322 -133 327 -7 3 -30 -3 -50 -15 -51 -28 -204 -95 -277 -120 -141 -49 -319 -82 -443 -82 -91 0 -237 25 -316 54 -36 13 -91 39 -122 57 -69 42 -163 141 -193 203 -91 188 -55 404 91 546 105 103 249 162 437 180 238 22 421 -37 626 -201 182 -147 367 -426 488 -736 134 -341 199 -750 177 -1113 -15 -246 -22 -309 -34 -319 -7 -6 -41 -4 -91 5 -189 34 -444 68 -677 91 -239 23 -823 23 -1023 0 -282 -33 -528 -86 -730 -157 -190 -67 -386 -174 -522 -283 -149 -120 -286 -285 -361 -432 -50 -101 -108 -269 -132 -383 -40 -199 -44 -497 -9 -672 61 -301 189 -541 404 -755 60 -61 153 -141 205 -177 177 -126 440 -242 672 -297 242 -58 414 -75 725 -68 258 5 369 17 558 62 272 64 495 160 720 310 398 265 708 660 919 1170 98 235 154 409 216 670 34 139 90 453 90 500 0 17 5 37 11 45 9 13 12 12 22 -5 23 -38 86 -93 123 -107 36 -13 36 -13 29 -73 -10 -100 -44 -280 -80 -434 -32 -136 -110 -414 -121 -432 -2 -4 1 -13 8 -19 7 -6 100 -66 206 -135 105 -68 231 -152 280 -186 100 -72 390 -289 442 -331 19 -15 87 -70 151 -120 288 -230 564 -464 903 -768 206 -183 214 -190 220 -190 3 0 5 392 4 871 -3 872 -3 872 -63 915 -228 164 -631 421 -870 556 -213 120 -574 297 -730 358 -33 13 -65 27 -72 32 -9 7 -4 26 22 76 18 37 43 103 55 147 92 332 128 439 211 627 57 127 155 301 214 378 54 70 117 128 149 136 35 8 64 -11 71 -49 3 -17 0 -88 -8 -157 -22 -211 4 -325 94 -424 92 -101 192 -138 374 -140 136 -1 205 16 340 84 172 86 316 209 364 310 21 45 27 73 29 151 3 83 1 102 -17 138 -27 52 -73 77 -125 67 -26 -5 -65 -32 -138 -97 -106 -93 -193 -144 -263 -155 -74 -11 -132 53 -134 148 -1 20 10 97 23 170 52 284 59 344 46 415 -13 79 -27 107 -72 150 -96 92 -285 92 -473 -2 -233 -115 -449 -362 -624 -713 -39 -77 -71 -143 -71 -145 0 -3 -9 -27 -20 -53 -34 -77 -43 -44 -24 87 18 135 49 279 110 522 55 219 63 282 40 325 -20 38 -47 47 -144 47 -47 0 -72 4 -72 12 0 6 28 46 63 90 85 106 121 158 203 293 145 238 247 485 319 770 62 249 90 440 101 700 7 160 7 160 -668 160 -371 0 -678 -3 -681 -7z m298 -2433 c-9 -39 -21 -70 -25 -70 -9 0 -20 50 -20 91 0 18 9 35 27 49 17 13 29 17 31 10 2 -6 -4 -42 -13 -80z m-1875 -2004 c277 -37 611 -106 638 -130 10 -10 7 -24 -12 -72 -119 -293 -252 -500 -441 -690 -155 -156 -289 -247 -476 -323 -137 -56 -261 -82 -414 -88 -318 -13 -574 58 -722 200 -74 70 -116 133 -144 212 -29 84 -40 149 -40 250 1 146 40 259 127 362 55 64 119 112 220 162 117 59 263 98 489 131 95 14 642 4 775 -14z"/>
</g>
<g visibility="hidden">
<set attributeName="visibility" to="visible" begin="2.6667s" end="2.7333s"/>
<path d="M5286 10453 c-9 -165 -34 -366 -63 -493 -47 -215 -165 -538 -193 -528 -6 2 -50 50 -98 108 -287 342 -685 566 -1142 644 -382 65 -776 33 -1108 -90 -130 -48 -305 -140 -411 -216 -113 -82 -258 -222 -337 -328 -110 -145 -199 -340 -241 -524 -24 -104 -23 -374 1 -484 57 -265 171 -469 380 -678 228 -227 485 -369 816 -449 165 -39 300 -55 485 -55 183 0 333 16 535 56 140 28 377 95 458 130 52 23 52 23 52 74 0 60 -41 302 -70 413 -50 190 -146 447 -167 447 -7 0 -48 -17 -91 -39 -225 -112 -483 -181 -680 -181 -139 0 -328 46 -427 105 -69 40 -147 118 -187 186 -22 37 -44 93 -54 137 -14 63 -15 88 -5 156 7 55 22 104 46 152 63 129 205 236 371 278 99 26 246 37 338 27 261 -30 513 -209 711 -506 77 -116 187 -337 239 -479 52 -140 111 -376 137 -551 18 -121 23 -191 23 -360 -1 -205 -18 -463 -32 -477 -4 -4 -73 4 -152 17 -177 31 -389 59 -621 82 -240 23 -824 23 -1024 0 -210 -25 -364 -53 -526 -97 -302 -82 -516 -183 -714 -336 -159 -123 -285 -276 -372 -448 -113 -225 -163 -447 -163 -734 0 -238 33 -415 111 -602 67 -158 157 -298 275 -429 60 -67 196 -181 289 -243 263 -174 610 -290 991 -329 153 -15 578 -7 714 15 731 117 1273 491 1659 1143 244 414 413 944 495 1553 46 345 59 578 53 965 -4 219 -11 391 -20 460 -33 244 -37 213 33 269 107 86 268 246 373 370 95 114 208 276 276 396 169 297 292 647 346 984 25 154 45 373 45 487 0 109 0 109 -674 109 -674 0 -674 0 -680 -107z m-1576 -4337 c306 -43 610 -105 638 -130 10 -9 5 -30 -24 -101 -101 -250 -230 -456 -399 -634 -222 -233 -486 -379 -775 -427 -82 -13 -137 -16 -260 -11 -294 12 -477 75 -616 211 -55 55 -82 91 -108 147 -67 140 -83 307 -46 453 11 43 33 101 49 130 33 58 115 144 176 186 138 95 327 155 590 190 111 14 641 5 775 -14z"/>
<path d="M6325 8526 c-33 -8 -72 -19 -87 -25 -35 -13 -112 -83 -137 -125 -27 -43 -95 -275 -127 -431 -46 -232 -65 -404 -71 -671 -10 -414 28 -651 121 -761 20 -24 24 -33 13 -33 -9 0 -75 23 -147 51 -72 28 -134 49 -137 45 -3 -3 -12 -49 -20 -103 -50 -351 -101 -591 -189 -882 -28 -93 -28 -94 -9 -107 11 -8 137 -92 280 -187 504 -335 982 -715 1670 -1327 121 -108 226 -199 233 -204 9 -6 12 169 12 863 0 869 0 869 -132 964 -204 146 -521 350 -693 448 -251 141 -423 231 -663 343 -45 21 -80 41 -78 44 3 3 33 6 66 7 41 2 77 11 114 29 90 44 113 92 212 446 86 310 235 635 369 810 54 70 117 128 149 136 35 8 64 -11 71 -49 3 -17 0 -88 -8 -157 -22 -211 4 -325 94 -424 92 -101 192 -138 374 -140 129 -1 200 15 323 74 46 22 87 38 91 35 5 -2 11 -71 14 -152 5 -130 9 -160 36 -242 37 -111 82 -188 147 -254 121 -120 295 -145 449 -64 33 18 89 62 125 98 98 98 147 187 235 424 7 20 7 20 15 0 5 -11 9 -40 9 -65 2 -75 38 -223 72 -296 37 -78 102 -147 163 -175 68 -30 173 -41 279 -29 92 10 217 46 292 82 61 30 161 100 253 177 97 81 264 258 298 316 53 92 72 271 35 350 -27 59 -55 80 -105 79 -23 0 -51 -6 -63 -12 -12 -7 -83 -82 -158 -166 -74 -85 -168 -184 -208 -220 -87 -80 -173 -126 -233 -126 -79 0 -134 74 -134 178 0 66 28 240 81 495 27 130 71 344 98 475 60 293 69 368 47 410 -9 17 -25 36 -36 42 -34 18 -142 23 -218 10 -89 -15 -155 -56 -194 -120 -15 -25 -54 -137 -88 -254 -129 -439 -268 -767 -402 -948 -60 -80 -132 -138 -174 -138 -33 0 -72 37 -84 78 -5 20 -10 69 -10 107 0 141 73 563 151 879 58 236 67 294 49 336 -21 50 -60 65 -175 64 -129 0 -202 -21 -259 -74 -23 -22 -55 -62 -70 -90 -34 -62 -96 -266 -141 -460 -33 -145 -33 -145 -96 -203 -67 -62 -160 -113 -224 -123 -74 -11 -132 53 -134 148 -1 20 10 97 23 170 52 284 59 344 46 415 -13 79 -27 107 -72 150 -96 92 -285 92 -473 -2 -233 -115 -449 -362 -624 -713 -39 -77 -71 -143 -71 -145 0 -3 -9 -27 -20 -53 -33 -76 -43 -45 -25 81 19 135 53 297 110 525 25 98 47 202 51 233 8 64 -7 111 -39 129 -32 17 -175 19 -242 4z"/>
</g>
<g visibility="hidden">
<set attributeName="visibility" to="visible" begin="2.7333s" end="2.8000s"/>
<path d="M5045 10548 c-2 -7 -6 -78 -9 -158 -8 -226 -47 -445 -122 -675 -42 -131 -105 -277 -120 -282 -6 -2 -41 32 -77 75 -68 82 -222 237 -292 293 -130 104 -389 246 -540 297 -154 52 -256 76 -415 97 -348 46 -661 20 -970 -80 -142 -46 -356 -154 -475 -240 -158 -113 -328 -295 -416 -446 -57 -98 -116 -243 -146 -358 -34 -134 -42 -338 -19 -481 10 -56 29 -137 42 -179 38 -116 127 -286 199 -382 89 -117 260 -280 375 -357 108 -72 299 -167 410 -205 213 -72 367 -98 615 -104 154 -4 231 -1 335 12 180 23 376 65 535 113 179 55 207 66 219 85 7 10 6 50 -3 124 -24 195 -73 394 -148 603 -50 137 -69 180 -82 180 -5 0 -55 -22 -112 -49 -297 -141 -584 -196 -812 -157 -181 31 -298 88 -397 193 -103 110 -144 240 -123 389 16 108 58 187 143 267 75 72 172 125 276 151 103 27 256 38 342 26 95 -13 225 -57 298 -101 146 -89 298 -239 407 -402 105 -157 240 -455 296 -652 34 -120 69 -295 86 -424 28 -216 15 -754 -18 -788 -9 -9 -45 -6 -151 13 -173 30 -392 58 -618 81 -240 23 -824 23 -1023 0 -169 -20 -352 -51 -460 -78 -238 -59 -471 -151 -622 -245 -237 -145 -432 -351 -540 -569 -69 -137 -119 -310 -143 -491 -17 -123 -8 -463 15 -564 64 -292 195 -531 399 -735 61 -61 154 -141 206 -178 52 -37 158 -98 235 -136 202 -101 418 -167 675 -208 92 -14 175 -18 415 -18 330 0 420 9 654 66 334 82 620 225 886 444 288 237 539 587 718 1001 188 438 294 886 354 1504 14 144 18 271 17 575 0 307 -4 420 -17 530 -34 269 -37 234 24 283 329 266 613 638 787 1032 155 351 243 745 259 1163 6 157 6 157 -671 157 -533 0 -677 -3 -681 -12z m-1575 -4432 c151 -21 288 -44 375 -62 163 -34 251 -57 262 -68 10 -9 6 -28 -21 -91 -121 -288 -228 -459 -401 -644 -101 -109 -271 -239 -390 -299 -178 -89 -332 -130 -520 -139 -231 -10 -432 24 -585 99 -66 32 -102 58 -161 117 -84 84 -118 146 -150 268 -24 94 -25 241 -3 326 43 165 145 282 330 375 126 63 256 99 464 128 131 18 643 12 800 -10z"/>
<path d="M10384 8545 c-95 -30 -179 -95 -205 -160 -9 -22 -11 -159 -10 -521 3 -491 3 -491 -45 -569 -67 -110 -256 -300 -343 -343 -85 -42 -138 -43 -184 -2 -38 33 -57 85 -57 156 0 62 38 287 91 536 149 706 161 785 135 836 -9 17 -25 36 -36 42 -34 18 -142 23 -217 10 -88 -14 -153 -53 -192 -115 -15 -24 -45 -102 -65 -172 -51 -178 -137 -440 -181 -553 -64 -164 -180 -391 -244 -478 -63 -84 -134 -142 -177 -142 -33 0 -72 37 -84 78 -5 20 -10 69 -10 107 0 141 73 563 151 879 58 236 67 294 49 336 -21 50 -60 65 -175 64 -129 0 -202 -21 -259 -74 -23 -22 -55 -62 -70 -90 -34 -62 -96 -266 -141 -460 -33 -145 -33 -145 -96 -203 -67 -62 -160 -113 -224 -123 -74 -11 -132 53 -134 148 -1 20 10 97 23 170 52 284 59 344 46 415 -13 79 -27 107 -72 150 -96 92 -285 92 -473 -2 -233 -115 -449 -362 -624 -713 -39 -77 -71 -143 -71 -145 0 -3 -9 -27 -20 -53 -33 -76 -43 -45 -25 81 19 135 53 297 111 527 55 220 63 283 40 326 -10 19 -28 35 -44 39 -15 5 -67 8 -117 7 -124 -1 -202 -24 -265 -81 -27 -24 -58 -58 -69 -76 -29 -48 -96 -281 -130 -452 -54 -273 -65 -401 -66 -725 0 -318 9 -417 51 -551 29 -93 69 -149 129 -185 38 -22 59 -27 123 -28 65 -1 86 3 134 27 92 45 114 91 214 447 86 310 235 635 369 810 54 70 117 128 149 136 35 8 64 -11 71 -49 3 -17 0 -88 -8 -157 -22 -211 4 -325 94 -424 92 -101 192 -138 374 -140 129 -1 200 15 323 74 46 22 87 38 91 35 5 -2 11 -71 14 -152 5 -130 9 -160 36 -242 37 -111 82 -188 147 -254 121 -120 295 -145 449 -64 33 18 89 62 125 98 98 98 147 187 235 424 7 20 7 20 15 0 5 -11 9 -40 9 -65 2 -75 38 -223 72 -296 37 -78 102 -147 163 -175 66 -29 174 -41 269 -29 45 5 92 12 105 16 17 5 22 2 22 -13 0 -11 -18 -62 -41 -114 -58 -133 -161 -448 -202 -619 -67 -274 -88 -428 -88 -643 1 -157 11 -234 46 -345 57 -181 167 -282 338 -311 109 -19 233 4 330 60 109 64 213 191 294 359 73 150 159 432 213 696 49 235 110 701 110 834 0 29 6 54 14 63 9 8 46 16 93 20 102 8 224 46 341 108 94 49 94 49 150 3 110 -90 199 -118 362 -117 193 2 369 67 545 200 106 80 309 283 359 357 47 71 68 149 67 252 0 66 -4 95 -21 130 -27 55 -67 78 -120 69 -46 -8 -70 -29 -195 -170 -118 -133 -162 -176 -240 -240 -79 -63 -170 -106 -244 -112 -70 -7 -163 4 -185 20 -14 11 -10 22 38 100 155 253 238 564 223 832 -15 260 -100 448 -254 566 -73 56 -151 87 -249 101 -93 12 -219 -8 -312 -52 -85 -40 -196 -124 -267 -204 -45 -50 -57 -58 -65 -46 -5 8 -10 58 -10 110 -1 119 -21 173 -74 195 -44 18 -194 18 -252 0z m816 -465 c46 -23 77 -65 96 -127 16 -54 18 -230 4 -320 -26 -159 -98 -342 -185 -472 -51 -76 -168 -194 -230 -233 -56 -34 -152 -71 -164 -63 -13 7 -14 249 -4 642 6 262 6 262 57 330 27 37 82 101 122 140 113 115 214 149 304 103z m-1040 -1502 c0 -65 -9 -230 -25 -493 -26 -409 -77 -789 -136 -1015 -25 -97 -77 -200 -110 -219 -85 -47 -149 77 -149 289 0 347 139 870 397 1498 13 31 23 6 23 -60z"/>
<path d="M5506 6568 c-3 -7 -12 -69 -21 -138 -35 -264 -98 -558 -169 -790 -19 -63 -37 -122 -41 -131 -4 -12 7 -24 42 -44 26 -15 139 -88 251 -162 486 -322 1153 -858 1807 -1452 55 -50 103 -91 108 -91 4 0 7 391 7 870 0 869 0 869 -107 946 -231 164 -610 406 -818 521 -300 166 -572 297 -854 409 -101 41 -188 74 -193 74 -5 0 -10 -6 -12 -12z"/>
</g>
<g visibility="hidden">
<set attributeName="visibility" to="visible" begin="2.8000s" end="2.8667s"/>
<path d="M4927 10353 c-19 -237 -56 -437 -115 -618 -48 -149 -113 -305 -128 -305 -6 0 -48 45 -94 101 -216 261 -515 467 -830 573 -180 60 -336 90 -563 107 -265 21 -555 -13 -804 -95 -158 -53 -369 -161 -493 -255 -190 -142 -349 -328 -445 -521 -87 -173 -123 -311 -132 -506 -9 -196 21 -354 102 -543 71 -167 171 -307 322 -452 104 -100 265 -214 384 -275 68 -34 187 -83 264 -110 74 -25 248 -64 355 -79 134 -19 411 -19 560 -1 133 17 343 58 445 87 117 34 315 100 319 107 5 9 -20 206 -40 307 -20 107 -77 312 -113 410 -42 116 -79 195 -89 195 -6 0 -52 -20 -103 -44 -138 -66 -236 -102 -346 -130 -193 -48 -334 -57 -488 -30 -284 49 -468 210 -507 442 -10 63 -10 85 4 153 9 43 27 100 40 126 12 27 54 80 93 118 127 128 294 187 530 188 120 0 137 -3 225 -32 52 -18 123 -48 158 -67 74 -42 189 -133 255 -202 121 -129 243 -321 336 -528 121 -270 193 -560 222 -891 10 -113 10 -186 0 -355 -7 -117 -16 -233 -20 -258 -5 -37 -10 -45 -26 -44 -11 1 -94 13 -185 27 -462 73 -674 91 -1100 91 -371 -1 -493 -9 -755 -54 -146 -25 -380 -87 -503 -134 -250 -96 -440 -214 -602 -375 -203 -201 -318 -420 -382 -726 -20 -96 -23 -140 -23 -340 0 -186 4 -247 19 -320 93 -451 370 -815 796 -1044 162 -87 405 -169 620 -210 183 -34 322 -43 586 -38 266 5 368 16 579 67 557 133 1016 460 1352 965 280 421 483 1005 572 1645 48 346 56 476 56 910 -1 414 -1 427 -41 730 -6 45 -6 45 58 95 93 73 323 306 410 415 386 488 599 1088 625 1763 6 167 6 167 -668 167 -675 0 -675 0 -692 -207z m-1537 -4242 c291 -41 582 -101 608 -126 11 -10 7 -27 -22 -99 -108 -259 -231 -455 -400 -634 -223 -235 -485 -380 -776 -428 -82 -13 -137 -16 -260 -11 -294 12 -477 75 -616 211 -55 54 -82 91 -109 147 -44 93 -65 189 -65 299 0 184 66 324 208 442 70 58 205 123 323 157 213 60 317 70 669 66 229 -2 327 -8 440 -24z"/>
<path d="M10384 8545 c-95 -30 -179 -95 -205 -160 -9 -22 -11 -159 -10 -521 3 -491 3 -491 -45 -569 -67 -110 -256 -300 -343 -343 -85 -42 -138 -43 -184 -2 -38 33 -57 85 -57 156 0 62 38 287 91 536 149 706 161 785 135 836 -9 17 -25 36 -36 42 -34 18 -142 23 -217 10 -88 -14 -153 -53 -192 -115 -15 -24 -45 -102 -65 -172 -51 -178 -137 -440 -181 -553 -64 -164 -180 -391 -244 -478 -63 -84 -134 -142 -177 -142 -33 0 -72 37 -84 78 -5 20 -10 69 -10 107 0 141 73 563 151 879 58 236 67 294 49 336 -21 50 -60 65 -175 64 -129 0 -202 -21 -259 -74 -23 -22 -55 -62 -70 -90 -34 -62 -96 -266 -141 -460 -33 -145 -33 -145 -96 -203 -67 -62 -160 -113 -224 -123 -74 -11 -132 53 -134 148 -1 20 10 97 23 170 52 284 59 344 46 415 -13 79 -27 107 -72 150 -96 92 -285 92 -473 -2 -233 -115 -449 -362 -624 -713 -39 -77 -71 -143 -71 -145 0 -3 -9 -27 -20 -53 -33 -76 -43 -45 -25 81 19 135 53 297 111 527 55 220 63 283 40 326 -10 19 -28 35 -44 39 -15 5 -67 8 -117 7 -124 -1 -202 -24 -265 -81 -27 -24 -58 -58 -69 -76 -29 -48 -96 -281 -130 -452 -54 -273 -65 -401 -66 -725 0 -318 9 -417 51 -551 29 -93 69 -149 129 -185 38 -22 59 -27 123 -28 65 -1 86 3 134 27 92 45 114 91 214 447 86 310 235 635 369 810 54 70 117 128 149 136 35 8 64 -11 71 -49 3 -17 0 -88 -8 -157 -22 -211 4 -325 94 -424 92 -101 192 -138 374 -140 129 -1 200 15 323 74 46 22 87 38 91 35 5 -2 11 -71 14 -152 5 -130 9 -160 36 -242 37 -111 82 -188 147 -254 121 -120 295 -145 449 -64 33 18 89 62 125 98 98 98 147 187 235 424 7 20 7 20 15 0 5 -11 9 -40 9 -65 2 -75 38 -223 72 -296 37 -78 102 -147 163 -175 66 -29 174 -41 269 -29 45 5 92 12 105 16 17 5 22 2 22 -13 0 -11 -18 -62 -41 -114 -58 -133 -161 -448 -202 -619 -67 -274 -88 -428 -88 -643 1 -158 11 -234 46 -345 44 -139 122 -235 230 -282 58 -25 167 -42 228 -34 211 24 355 139 487 387 74 141 173 455 229 729 50 241 111 707 111 842 0 25 6 51 14 59 9 8 46 16 93 20 102 8 224 46 341 108 94 49 94 49 150 3 110 -90 199 -118 362 -117 193 2 369 67 545 200 106 80 309 283 359 357 47 71 68 149 67 252 0 66 -4 95 -21 130 -28 56 -67 78 -122 69 -46 -8 -65 -26 -228 -209 -186 -208 -320 -302 -449 -313 -70 -7 -163 4 -185 20 -14 11 -10 22 38 100 114 187 193 413 217 625 14 124 5 304 -21 407 -32 125 -91 236 -165 310 -100 100 -193 145 -330 160 -81 8 -209 -16 -293 -55 -85 -40 -196 -124 -267 -204 -45 -50 -57 -58 -65 -46 -5 8 -10 58 -10 110 -1 119 -21 173 -74 195 -44 18 -194 18 -252 0z m816 -465 c46 -23 77 -65 96 -127 16 -54 18 -230 4 -320 -26 -159 -98 -342 -185 -472 -51 -76 -168 -194 -230 -233 -56 -34 -152 -71 -164 -63 -13 7 -14 249 -4 642 6 262 6 262 57 330 27 37 82 101 122 140 113 115 214 149 304 103z m-1040 -1502 c0 -93 -26 -536 -40 -693 -36 -397 -83 -697 -136 -865 -27 -88 -73 -165 -104 -175 -84 -27 -140 91 -140 295 0 347 139 870 397 1498 13 31 23 6 23 -60z"/>
<path d="M5396 6563 c-3 -10 -8 -45 -11 -78 -25 -230 -99 -584 -182 -863 -31 -105 -34 -125 -22 -136 8 -7 77 -52 154 -101 503 -319 1144 -825 1847 -1457 103 -92 190 -168 193 -168 3 0 5 391 5 869 0 870 0 870 -117 954 -455 327 -978 628 -1453 837 -140 62 -387 160 -402 160 -3 0 -9 -8 -12 -17z"/>
</g>
<g visibility="hidden">
<set attributeName="visibility" to="visible" begin="2.8667s" end="2.9333s"/>
<path d="M4910 10528 c0 -89 -23 -334 -40 -435 -20 -115 -59 -282 -86 -363 -21 -64 -82 -219 -102 -259 -9 -19 -22 -36 -28 -38 -6 -2 -35 27 -64 64 -73 95 -242 258 -347 336 -172 129 -389 237 -597 296 -508 147 -1056 110 -1496 -100 -174 -83 -318 -186 -455 -323 -201 -203 -311 -395 -376 -661 -19 -75 -22 -118 -22 -260 0 -121 4 -191 16 -241 71 -311 247 -587 512 -801 70 -57 207 -144 290 -185 154 -76 350 -139 540 -174 121 -22 444 -30 588 -14 132 14 373 60 495 95 104 29 292 92 300 100 15 14 -15 244 -54 414 -41 179 -157 501 -181 501 -7 0 -45 -16 -83 -35 -226 -114 -491 -185 -688 -185 -88 0 -221 22 -302 50 -98 34 -168 77 -236 145 -108 108 -156 246 -135 394 30 220 203 381 470 437 105 22 289 22 370 1 165 -44 299 -124 436 -262 105 -104 161 -176 232 -295 213 -357 334 -769 359 -1215 6 -103 -10 -446 -25 -545 -5 -37 -10 -45 -26 -44 -11 1 -94 13 -185 27 -461 73 -673 91 -1100 91 -371 -1 -491 -9 -755 -54 -161 -28 -394 -92 -535 -147 -128 -50 -276 -129 -390 -207 -41 -28 -122 -98 -180 -156 -231 -230 -360 -507 -400 -861 -18 -150 -8 -415 20 -543 68 -318 228 -591 466 -798 125 -110 243 -187 389 -258 229 -110 459 -173 765 -210 129 -15 506 -12 648 5 383 48 703 159 987 343 380 246 683 615 902 1094 203 444 325 947 385 1583 8 91 13 287 13 560 -1 419 -1 430 -40 725 -6 45 -6 45 55 94 94 75 250 227 343 334 331 381 551 851 646 1381 28 154 51 390 51 522 0 109 0 109 -675 109 -675 0 -675 0 -675 -32z m-1550 -4417 c146 -20 310 -48 430 -75 88 -19 181 -44 187 -49 20 -21 -167 -400 -264 -536 -120 -166 -302 -343 -459 -443 -135 -86 -321 -157 -484 -184 -82 -13 -137 -16 -260 -11 -194 8 -339 39 -459 98 -113 56 -213 154 -264 259 -67 138 -84 309 -47 456 71 278 335 441 815 504 39 5 203 7 365 5 226 -3 329 -8 440 -24z"/>
<path d="M10384 8545 c-95 -30 -179 -95 -205 -160 -9 -22 -11 -159 -10 -521 3 -491 3 -491 -45 -569 -67 -110 -256 -300 -343 -343 -85 -42 -138 -43 -184 -2 -38 33 -57 85 -57 156 0 62 38 287 91 536 149 706 161 785 135 836 -9 17 -25 36 -36 42 -34 18 -142 23 -217 10 -88 -14 -153 -53 -192 -115 -15 -24 -45 -102 -65 -172 -51 -178 -137 -440 -181 -553 -64 -164 -180 -391 -244 -478 -63 -84 -134 -142 -177 -142 -33 0 -72 37 -84 78 -5 20 -10 69 -10 107 0 141 73 563 151 879 58 236 67 294 49 336 -21 50 -60 65 -175 64 -129 0 -202 -21 -259 -74 -23 -22 -55 -62 -70 -90 -34 -62 -96 -266 -141 -460 -33 -145 -33 -145 -96 -203 -67 -62 -160 -113 -224 -123 -74 -11 -132 53 -134 148 -1 20 10 97 23 170 52 284 59 344 46 415 -13 79 -27 107 -72 150 -96 92 -285 92 -473 -2 -233 -115 -449 -362 -624 -713 -39 -77 -71 -143 -71 -145 0 -3 -9 -27 -20 -53 -33 -76 -43 -45 -25 81 19 135 53 297 111 527 55 220 63 283 40 326 -10 19 -28 35 -44 39 -15 5 -67 8 -117 7 -124 -1 -202 -24 -265 -81 -27 -24 -58 -58 -69 -76 -29 -48 -96 -281 -130 -452 -54 -273 -65 -401 -66 -725 0 -318 9 -417 51 -551 29 -93 69 -149 129 -185 38 -22 59 -27 123 -28 65 -1 86 3 134 27 92 45 114 91 214 447 86 310 235 635 369 810 54 70 117 128 149 136 35 8 64 -11 71 -49 3 -17 0 -88 -8 -157 -22 -211 4 -325 94 -424 92 -101 192 -138 374 -140 129 -1 200 15 323 74 46 22 87 38 91 35 5 -2 11 -71 14 -152 5 -130 9 -160 36 -242 37 -111 82 -188 147 -254 121 -120 295 -145 449 -64 33 18 89 62 125 98 98 98 147 187 235 424 7 20 7 20 15 0 5 -11 9 -40 9 -65 2 -75 38 -223 72 -296 37 -78 102 -147 163 -175 66 -29 174 -41 269 -29 45 5 92 12 105 16 18 5 22 2 22 -14 0 -11 -14 -50 -30 -87 -124 -275 -258 -763 -290 -1050 -14 -124 -14 -355 0 -441 35 -217 126 -363 265 -424 58 -25 167 -42 228 -34 211 24 355 139 487 387 74 141 173 455 229 729 50 241 111 707 111 842 0 25 6 51 14 59 9 8 46 16 93 20 102 8 224 46 341 108 94 49 94 49 150 3 110 -90 199 -118 362 -117 193 2 369 67 545 200 106 80 309 283 359 357 47 71 68 149 67 252 0 66 -4 95 -21 130 -28 56 -67 78 -122 69 -46 -8 -65 -26 -228 -209 -186 -208 -320 -302 -449 -313 -70 -7 -163 4 -185 20 -14 11 -10 22 38 100 173 283 256 638 216 922 -16 111 -38 184 -81 273 -66 136 -194 249 -324 286 -130 37 -278 24 -403 -34 -85 -40 -196 -124 -267 -204 -45 -50 -57 -58 -65 -46 -5 8 -10 58 -10 110 -1 119 -21 173 -74 195 -44 18 -194 18 -252 0z m816 -465 c46 -23 77 -65 96 -127 16 -54 18 -230 4 -320 -26 -159 -98 -342 -185 -472 -51 -76 -168 -194 -230 -233 -56 -34 -152 -71 -164 -63 -13 7 -14 249 -4 642 6 262 6 262 57 330 27 37 82 101 122 140 113 115 214 149 304 103z m-1040 -1502 c0 -93 -26 -536 -40 -693 -36 -397 -83 -697 -136 -865 -27 -88 -73 -165 -104 -175 -84 -27 -140 91 -140 295 0 347 139 870 397 1498 13 31 23 6 23 -60z"/>
<path d="M13558 7244 c-141 -34 -230 -115 -280 -252 -16 -44 -21 -82 -21 -167 -1 -92 3 -120 23 -170 29 -74 104 -155 169 -184 93 -40 226 -47 336 -19 196 50 316 258 285 499 -11 88 -42 159 -92 209 -84 85 -268 121 -420 84z"/>
<path d="M5366 6558 c-3 -13 -8 -50 -11 -83 -12 -109 -64 -398 -100 -549 -19 -82 -53 -212 -76 -288 -36 -118 -40 -141 -28 -152 8 -7 70 -48 139 -91 327 -204 773 -538 1230 -919 221 -185 569 -487 724 -630 53 -49 99 -87 101 -84 3 2 5 393 5 868 0 733 -2 866 -14 878 -23 23 -324 230 -494 338 -86 56 -224 141 -307 190 -167 97 -590 314 -760 388 -115 51 -384 156 -397 156 -4 0 -10 -10 -12 -22z"/>
</g>
<g visibility="hidden">
<set attributeName="visibility" to="visible" begin="2.9333s" end="3.0000s"/>
<path d="M4906 10453 c-10 -169 -35 -367 -62 -493 -44 -198 -164 -530 -192 -530 -6 0 -34 30 -63 68 -75 96 -241 257 -345 335 -173 129 -389 236 -598 296 -508 147 -1056 110 -1496 -100 -170 -81 -319 -186 -451 -318 -63 -64 -140 -152 -171 -196 -104 -149 -185 -339 -219 -510 -9 -44 -14 -131 -13 -235 1 -185 16 -267 79 -433 64 -166 155 -305 294 -451 217 -225 488 -380 816 -465 154 -40 258 -53 457 -58 256 -7 438 14 723 82 98 24 361 108 373 119 19 20 -29 323 -83 520 -41 148 -131 385 -150 392 -7 3 -45 -11 -84 -30 -227 -115 -492 -186 -689 -186 -88 0 -221 22 -302 50 -98 35 -168 78 -238 146 -107 107 -154 241 -134 389 30 224 202 384 471 441 105 22 289 22 370 1 263 -70 482 -254 668 -560 197 -327 317 -714 353 -1142 12 -142 8 -320 -11 -535 -6 -63 -14 -118 -17 -122 -4 -4 -70 4 -148 17 -178 30 -405 60 -626 82 -240 23 -824 23 -1023 0 -212 -25 -364 -53 -530 -98 -261 -71 -476 -168 -662 -298 -158 -111 -316 -289 -408 -458 -77 -141 -133 -322 -161 -513 -21 -143 -18 -395 5 -532 84 -485 391 -879 866 -1108 232 -111 468 -176 773 -210 65 -8 196 -10 360 -7 275 5 375 16 587 67 550 131 1005 452 1334 940 121 180 193 312 274 502 186 433 291 879 354 1488 14 139 18 260 18 585 -1 326 -4 438 -18 545 -33 263 -42 224 68 315 109 90 270 253 361 365 79 98 207 289 277 415 159 285 271 618 327 973 20 124 40 347 40 455 0 107 0 107 -674 107 -674 0 -674 0 -680 -107z m-1546 -4342 c253 -35 597 -105 617 -125 9 -8 -54 -159 -118 -286 -102 -201 -220 -362 -373 -507 -208 -199 -454 -326 -716 -369 -82 -13 -137 -16 -260 -11 -192 8 -335 38 -457 98 -116 55 -218 155 -267 260 -78 165 -88 378 -23 531 70 165 248 299 489 367 212 60 317 70 668 66 226 -3 329 -8 440 -24z"/>
<path d="M10384 8545 c-95 -30 -179 -95 -205 -160 -9 -22 -11 -157 -10 -521 3 -490 3 -490 -45 -569 -67 -110 -256 -300 -343 -343 -85 -42 -138 -43 -184 -2 -38 33 -57 85 -57 158 0 62 37 278 91 535 149 705 161 784 135 835 -9 17 -25 36 -36 42 -34 18 -142 23 -217 10 -88 -14 -153 -53 -192 -115 -15 -24 -45 -102 -65 -172 -51 -177 -137 -440 -181 -553 -61 -159 -182 -394 -245 -480 -62 -82 -134 -140 -176 -140 -33 0 -72 37 -84 78 -16 59 -12 165 15 342 36 247 69 416 125 641 59 239 68 296 50 339 -21 50 -60 65 -175 64 -129 0 -202 -21 -259 -74 -23 -22 -55 -62 -70 -90 -34 -62 -96 -266 -141 -460 -33 -145 -33 -145 -94 -201 -75 -69 -175 -122 -235 -123 -76 -2 -123 53 -125 146 -1 20 10 98 24 172 50 269 58 342 45 414 -13 78 -27 106 -72 149 -96 92 -285 92 -473 -2 -172 -85 -334 -241 -479 -460 -96 -145 -169 -285 -240 -459 -11 -26 -20 -36 -26 -30 -22 22 30 308 117 649 32 125 46 202 47 253 1 67 -1 75 -24 92 -30 22 -129 35 -197 26 -135 -19 -215 -62 -272 -146 -59 -88 -147 -442 -187 -755 -14 -106 -18 -212 -19 -435 0 -318 9 -417 51 -551 29 -93 69 -149 129 -185 38 -22 59 -27 123 -28 65 -1 86 3 133 27 83 40 124 111 169 289 79 312 186 588 311 805 34 59 81 133 104 163 54 70 117 128 149 136 35 8 64 -11 71 -49 3 -17 0 -88 -8 -157 -22 -211 4 -325 94 -424 92 -101 192 -138 374 -140 129 -1 200 15 323 74 46 22 87 38 91 35 5 -2 11 -71 14 -152 5 -130 9 -160 36 -242 37 -111 82 -188 147 -254 121 -120 295 -145 449 -64 33 18 89 62 125 98 98 98 147 187 235 424 7 20 7 20 15 0 5 -11 9 -40 9 -65 2 -75 38 -223 72 -296 37 -78 102 -147 163 -175 67 -29 173 -41 276 -29 48 5 96 13 104 16 25 10 20 -25 -14 -101 -124 -275 -258 -763 -290 -1050 -14 -124 -14 -355 0 -441 16 -102 56 -215 99 -282 63 -96 147 -149 274 -171 108 -19 233 4 330 60 107 63 215 192 291 351 102 212 198 563 261 954 26 159 65 513 65 588 0 25 6 51 14 59 9 8 46 16 93 20 102 8 224 46 341 108 94 49 94 49 150 3 111 -90 200 -119 363 -117 132 2 242 29 364 88 50 24 131 74 180 112 105 79 309 282 359 357 47 70 68 149 67 251 0 103 -23 165 -71 190 -40 20 -95 13 -132 -18 -15 -12 -79 -80 -142 -152 -253 -285 -392 -365 -589 -341 -30 4 -62 13 -71 19 -15 11 -11 20 31 87 205 330 282 740 197 1066 -8 33 -34 97 -57 144 -67 137 -192 247 -322 284 -130 37 -278 24 -403 -34 -85 -40 -196 -124 -267 -204 -45 -50 -57 -58 -65 -46 -5 8 -10 58 -10 110 -1 119 -21 173 -74 195 -44 18 -194 18 -252 0z m816 -465 c78 -40 110 -120 110 -278 0 -59 -5 -135 -10 -169 -26 -159 -98 -342 -185 -472 -51 -76 -168 -194 -230 -233 -56 -34 -152 -71 -164 -63 -13 7 -14 282 -4 657 6 247 6 247 57 315 27 37 82 101 122 140 113 115 214 149 304 103z m-1040 -1502 c0 -93 -26 -536 -40 -693 -36 -397 -89 -732 -140 -880 -27 -79 -67 -144 -95 -157 -84 -38 -145 84 -145 292 0 158 27 348 81 563 70 284 172 586 316 935 13 31 23 6 23 -60z"/>
<path d="M13558 7244 c-141 -34 -230 -115 -280 -252 -16 -44 -21 -82 -21 -167 -1 -92 3 -120 23 -170 29 -74 104 -155 169 -184 93 -40 226 -47 336 -19 196 50 316 258 286 496 -12 92 -42 162 -93 212 -84 85 -268 121 -420 84z"/>
<path d="M5366 6558 c-2 -13 -16 -104 -31 -203 -32 -218 -88 -475 -150 -689 -25 -88 -44 -164 -42 -170 3 -6 55 -43 116 -81 481 -301 1105 -788 1798 -1404 156 -138 285 -251 288 -251 3 0 5 391 5 869 0 870 0 870 -117 954 -381 273 -813 532 -1207 723 -230 111 -615 274 -648 274 -4 0 -10 -10 -12 -22z"/>
</g>
<g visibility="hidden">
<set attributeName="visibility" to="visible" begin="3.0000s" fill="freeze"/>
<path d="M4910 10533 c0 -62 -21 -305 -36 -403 -28 -201 -103 -462 -179 -627 -19 -40 -38 -73 -44 -73 -5 0 -24 19 -42 43 -166 214 -399 408 -634 525 -136 69 -234 106 -367 141 -153 41 -263 58 -447 73 -122 9 -188 9 -308 -1 -282 -23 -499 -82 -738 -201 -172 -85 -315 -190 -446 -327 -149 -155 -257 -333 -318 -521 -46 -141 -56 -213 -55 -387 0 -125 5 -180 22 -252 44 -190 136 -379 262 -538 74 -93 224 -232 325 -301 247 -169 499 -264 819 -309 130 -19 410 -19 556 -1 220 27 498 94 703 168 57 21 57 21 57 64 0 50 -23 211 -46 323 -40 193 -165 551 -192 551 -7 0 -44 -16 -82 -35 -176 -88 -370 -151 -543 -174 -106 -15 -195 -14 -297 3 -171 28 -287 83 -388 182 -147 147 -180 352 -87 540 63 129 208 237 374 279 89 23 239 34 331 24 97 -9 228 -54 317 -107 384 -228 687 -798 779 -1462 12 -86 18 -189 17 -330 0 -199 -17 -458 -31 -472 -4 -4 -72 4 -152 18 -166 28 -472 67 -670 86 -180 16 -768 16 -930 -1 -342 -35 -615 -98 -864 -198 -137 -55 -183 -79 -326 -172 -188 -122 -352 -298 -457 -492 -77 -142 -137 -338 -163 -535 -18 -134 -8 -443 18 -560 31 -137 70 -248 130 -364 88 -171 196 -310 341 -437 215 -188 490 -326 804 -402 208 -51 311 -63 592 -68 204 -4 289 -2 394 11 543 66 955 254 1321 603 212 201 419 495 555 787 181 386 303 824 369 1316 44 333 51 453 51 880 -1 322 -4 432 -18 535 -33 257 -43 218 74 315 109 92 264 249 359 365 33 40 97 129 142 197 221 330 359 669 437 1068 38 195 61 417 61 583 0 97 0 97 -675 97 -675 0 -675 0 -675 -27z m-1545 -4422 c260 -36 578 -102 603 -125 10 -9 5 -30 -24 -101 -73 -181 -162 -341 -267 -480 -115 -150 -253 -282 -402 -382 -130 -88 -312 -163 -470 -194 -99 -20 -405 -18 -510 4 -189 38 -298 90 -401 192 -83 82 -135 178 -159 293 -19 91 -19 218 0 297 29 121 106 231 225 321 107 81 331 156 556 188 163 23 646 15 849 -13z"/>
<path d="M10397 8549 c-90 -21 -190 -97 -218 -164 -10 -23 -12 -147 -10 -520 3 -490 3 -490 -34 -553 -48 -81 -165 -213 -252 -287 -155 -132 -270 -139 -324 -21 -39 87 -29 154 155 1036 24 118 50 258 57 311 10 80 10 100 -2 124 -22 46 -61 60 -169 59 -211 -1 -276 -55 -344 -290 -144 -499 -288 -847 -426 -1034 -66 -88 -113 -129 -162 -136 -24 -4 -40 0 -60 16 -50 39 -59 129 -33 331 28 210 75 462 131 691 64 265 72 315 54 358 -21 51 -60 65 -175 64 -130 0 -202 -21 -261 -76 -24 -22 -57 -68 -74 -102 -36 -74 -100 -286 -139 -460 -25 -112 -33 -132 -62 -163 -54 -57 -173 -130 -233 -144 -49 -11 -58 -10 -88 8 -38 22 -59 59 -65 118 -3 22 8 116 25 210 46 258 53 315 46 375 -9 76 -34 129 -82 172 -62 56 -170 78 -279 58 -299 -56 -586 -328 -805 -763 -28 -56 -66 -135 -83 -176 -40 -94 -60 -106 -51 -30 19 148 52 317 108 544 71 288 80 373 40 405 -51 42 -242 35 -346 -13 -64 -30 -119 -86 -150 -151 -28 -60 -88 -279 -117 -426 -43 -219 -60 -389 -66 -655 -4 -203 -2 -290 10 -396 28 -232 80 -355 176 -408 36 -20 58 -24 126 -24 71 0 89 4 134 28 35 20 60 43 79 74 39 64 54 106 95 261 111 420 289 804 456 983 54 58 94 81 127 73 40 -10 47 -47 33 -177 -15 -150 -8 -267 20 -342 29 -75 110 -163 185 -200 76 -38 200 -60 301 -53 106 8 182 28 283 76 46 22 87 38 92 35 4 -2 10 -71 13 -152 4 -129 9 -159 35 -238 38 -116 87 -198 154 -262 68 -63 118 -89 198 -102 77 -13 139 -5 209 25 78 35 145 88 205 163 69 86 107 155 154 280 22 55 42 104 45 107 6 6 8 -6 27 -149 25 -201 108 -346 227 -399 26 -11 74 -24 107 -28 62 -7 236 3 270 16 16 6 18 3 14 -22 -3 -16 -25 -74 -48 -129 -60 -144 -152 -427 -194 -595 -63 -257 -77 -356 -83 -585 -4 -185 -3 -221 15 -307 26 -123 79 -236 141 -298 108 -108 289 -145 456 -93 137 43 265 164 364 344 126 233 247 688 311 1174 18 144 40 366 40 415 0 29 6 54 14 63 9 8 45 16 93 20 100 7 223 46 341 108 94 49 94 49 150 3 57 -47 114 -80 167 -96 98 -31 308 -25 432 13 158 48 331 166 510 346 131 132 180 198 204 274 26 84 26 228 0 286 -25 53 -67 77 -123 68 -45 -8 -66 -27 -222 -200 -240 -269 -376 -345 -569 -321 -30 4 -62 13 -72 20 -16 11 -13 18 28 82 79 122 140 260 182 409 42 147 50 213 49 390 -1 140 -5 184 -23 249 -28 107 -90 230 -146 293 -58 66 -147 126 -231 153 -85 29 -231 31 -318 6 -127 -37 -234 -107 -348 -229 -37 -39 -70 -69 -73 -65 -3 3 -9 59 -14 125 -9 130 -21 162 -72 189 -31 16 -179 18 -242 3z m815 -478 c31 -20 53 -44 69 -77 22 -45 24 -60 24 -204 -1 -166 -12 -234 -61 -372 -58 -161 -139 -291 -246 -394 -40 -39 -93 -83 -117 -98 -52 -33 -149 -68 -164 -59 -7 4 -8 150 -3 452 7 446 7 446 77 538 166 218 304 288 421 214z m-1052 -1493 c0 -128 -35 -675 -55 -848 -47 -429 -96 -678 -157 -800 -19 -36 -44 -71 -59 -79 -85 -47 -149 77 -149 289 0 241 68 575 199 969 70 211 199 541 212 541 5 0 9 -33 9 -72z"/>
<path d="M13558 7244 c-141 -34 -230 -115 -280 -252 -16 -44 -21 -82 -21 -167 -1 -91 3 -120 22 -167 29 -76 105 -159 170 -187 73 -31 182 -44 271 -31 194 27 321 158 351 363 21 141 -14 276 -93 356 -84 86 -265 123 -420 85z"/>
<path d="M5366 6568 c-2 -7 -11 -71 -20 -143 -34 -263 -94 -539 -172 -798 -20 -64 -34 -123 -31 -130 2 -6 40 -34 83 -61 540 -338 1171 -832 1931 -1513 100 -90 184 -163 187 -163 3 0 6 391 6 869 0 870 0 870 -77 926 -125 92 -496 335 -658 433 -325 194 -713 387 -1051 521 -97 39 -181 71 -186 71 -5 0 -10 -6 -12 -12z"/>
</g>
</g></svg>